<svg xmlns="http://www.w3.org/2000/svg" xmlns:xlink="http://www.w3.org/1999/xlink" width="718.948" height="534.356" viewBox="0 0 718.948 534.356"><defs><style>.a,.c{fill:#ff9a00;}.a,.i{opacity:0.1;}.b{opacity:0.8;}.d{fill:#444053;}.e,.f{fill:none;stroke:#444053;stroke-miterlimit:10;}.f{stroke-width:0.75px;}.g{fill:url(#a);}.h{fill:#fbbebe;}.j{fill:#3f3d56;}</style><linearGradient id="a" x1="0.5" y1="1" x2="0.5" gradientUnits="objectBoundingBox"><stop offset="0" stop-color="gray" stop-opacity="0.251"/><stop offset="0.54" stop-color="gray" stop-opacity="0.122"/><stop offset="1" stop-color="gray" stop-opacity="0.102"/></linearGradient></defs><g transform="translate(0.004 -0.05)"><path class="a" d="M512.941,156.168c-46.09-1.189-89.987-12.242-131.9-24.334S297.6,106.318,252.614,99.908c-28.935-4.123-62.028-4.707-85.337,6.822-22.44,11.081-29.69,30.209-33.585,48.013-2.934,13.367-4.657,27.432,3.376,39.945,5.583,8.688,15.482,15.988,22.333,24.313,23.836,28.956,6.986,64.656-18.836,92.929-12.107,13.26-26.172,25.908-35.522,40.03s-13.673,30.288-5.491,44.695c8.1,14.243,27.425,24.989,48.355,32.531,42.508,15.318,92.58,19.7,141.44,22.184,108.126,5.5,216.822,3.112,325.233.712,40.123-.883,80.416-1.773,119.884-6.409,21.92-2.557,44.545-6.623,60.462-16.429,20.2-12.448,25.2-33.528,11.665-49.138-22.7-26.186-85.458-32.695-101.346-60.8-8.731-15.468.235-32.695,12.933-47.045,27.233-30.772,72.874-57.77,75.274-92.95,1.652-24.156-20.289-48.355-54.216-59.785-35.558-11.978-84.874-10.476-111.1,9.358C601.113,149.332,553.641,157.194,512.941,156.168Z" transform="translate(-95.23 -81.235)"/><g class="b" transform="translate(516.359 0.05)"><path class="c" d="M972.487,202.133s-8.033-3.262-33.585,8.46-28.742,10.234-35.358,8.439-10.3-2.215-17.4-12c0,0-4.985-27.112-9.842-31.335s-25.41,2.4-25.41,2.4-24.655,5.669-29.383-27.3c0,0,3.333-24.84-1.211-32.467,0,0,9.173,3.952,24.3-2.428s27.233,6.879,27.233,6.879,3.817,9.878,3.418,15.76,2.015,8.1,9.258,5.256c0,0,3.561-5.042-1.474-13.374s-8.6-14.542-7.2-21.016S881.26,93.971,894.2,89.47s30.523-5.341,38.962-8.816,10.476-5.8,10.476-5.8-5.192,5.206,7.043,27.254,4.437,31.627,4.437,31.627-6.509,15.511-35.237,14.243c0,0-27.681,1.011-12.591,12.748,0,0,9.664-1.966,24.121-6.559s24.875,14.364,27.468,27.553S972.487,202.133,972.487,202.133Z" transform="translate(-820.3 -74.85)"/><path class="d" d="M972.946,98.273l.15-.043c1.111,4.209-11.259,21.115-21.835,34.561l-.121-.093C966.052,113.734,973.829,101.506,972.946,98.273Z" transform="translate(-857.962 -81.58)"/><path class="d" d="M939.255,146.24l.064.171c-8.446,10.739-19.071,23.558-27.574,33.051-.812.9-1.617,1.852-2.386,2.849l-.249-.192c.783-.976,1.588-1.93,2.4-2.849C920.013,169.762,930.816,156.972,939.255,146.24Z" transform="translate(-845.864 -95.399)"/><path class="d" d="M901.467,196.22l.171.285c-15.475,19.321-16.5,49.316-16.536,49.58l-3.262-3.732C881.876,242.054,885.885,215.669,901.467,196.22Z" transform="translate(-838.014 -109.786)"/><path class="e" d="M960.138,213.289s-18.245-9.486-32.467-6.082-46.233-12.035-46.233-12.035-13.6-5.519-16.33-11.815c0,0-9.322-9.863-9.856-14.955s-9.635-17.939-15.532-18.4" transform="translate(-825.89 -96.482)"/><path class="e" d="M1001.784,246.27s-9.187-6.189-8.119-13.41" transform="translate(-870.178 -120.333)"/><path class="e" d="M979.464,253.421S966.318,248.65,965,229.92" transform="translate(-861.952 -119.487)"/><path class="e" d="M951.8,258.148a29.4,29.4,0,0,1-8.389-28.628" transform="translate(-855.492 -119.372)"/><path class="e" d="M918.122,250.869s-8.361-17.54-.919-28.949" transform="translate(-847.305 -117.184)"/><path class="e" d="M1005.977,222.63s-9.507,3.02-7.463,8.019" transform="translate(-871.516 -117.388)"/><path class="e" d="M987.738,198.41s-12.719,4.031-13.018,22.027" transform="translate(-864.75 -110.417)"/><path class="e" d="M963.737,192.58s-11.573,14.286-10.753,27.268" transform="translate(-858.481 -108.738)"/><path class="e" d="M935.532,200.45s-11.5,10.989-10.034,17.092" transform="translate(-850.544 -111.004)"/><path class="e" d="M924.935,194.349s-10.782,1.93-12.285-1.609" transform="translate(-846.883 -108.784)"/><path class="e" d="M910.23,176.72s5.448,7.214,6.851,5.6" transform="translate(-846.186 -104.173)"/><path class="e" d="M972.582,167.8s-27.176,1.973-33.322-6.217" transform="translate(-854.542 -99.815)"/><path class="e" d="M902.2,125.68s12.755,27.368,22.013,30.858" transform="translate(-843.875 -89.481)"/><path class="e" d="M921,107.37s7.834,25.175,17.533,33.037" transform="translate(-849.286 -84.211)"/><path class="f" d="M988.742,141.1s-20.652,8.866-33.072-.107" transform="translate(-859.266 -93.888)"/><path class="f" d="M946.84,99.83s4.722,18.516,11.081,22.981" transform="translate(-856.724 -82.04)"/><path class="f" d="M991.282,112s-11.615,4.394-15.952,1.025" transform="translate(-864.925 -85.544)"/><path class="e" d="M894.484,185.21s0,16.13-4.394,17.277" transform="translate(-840.389 -106.617)"/><path class="e" d="M845.84,211.526s17.448,1.5,25.488-7.506" transform="translate(-827.652 -112.031)"/><path class="e" d="M883.53,158.45s-4.216,16.379-15.86,20.766" transform="translate(-833.935 -98.914)"/><path class="e" d="M831.15,187.677s12.349,4.273,22.967-6.637" transform="translate(-823.423 -105.417)"/><path class="e" d="M867.144,138.7s-1.168,13.894-8.724,20.4" transform="translate(-831.273 -93.229)"/><path class="e" d="M831.81,159.309s10.248.064,12.648-3.269" transform="translate(-823.613 -98.22)"/></g><ellipse class="a" cx="155.249" cy="11.038" rx="155.249" ry="11.038" transform="translate(31.953 512.329)"/><path class="g" d="M403.148,579.583c2.136-3.839,4.693-7.456,6.758-11.344,1.887-3.561,3.361-7.335,5.063-11,2.913-6.267,6.5-12.192,9.771-18.288,2.136-4,4.2-8.346,3.789-12.861-.392-4.273-2.9-7.976-3.867-12.107-3.945-16.956-13.438-32.524-19.228-48.925-1.481-4.159-2.92-8.346-4.771-12.363-3.561-7.727-8.546-14.67-13.531-21.557a60.878,60.878,0,0,0-5.982-7.435c-1.788-1.788-3.8-3.361-5.419-5.3-3.347-3.988-4.914-9.728-9.1-12.819-.071.185-.15.363-.228.548-3-7.656-13.054-12.7-18.886-19.05a112.127,112.127,0,0,1-9.35-12.285l-12.7-18.352c-2.186-3.162-4.415-6.409-5.3-10.177-1.082-4.544-.078-9.386-1.147-13.93a17.569,17.569,0,0,0-3.881-7.378c.121-.036.249-.085.377-.114,2.421-.648,4.985-.762,7.385-1.339,5.234-1.246,9.785-4.593,15-5.932,2.663-.712,5.5-.855,7.919-2.136a6.58,6.58,0,0,0,3.062-6.993c-1.688-8.937,3.027-18,2.229-27.062-.214-2.507-.855-4.949-1.268-7.435a78.814,78.814,0,0,1-.442-17.533,37.033,37.033,0,0,1,5.8-7.214c3.2-3.091,7.029-5.7,9.258-9.564a18.651,18.651,0,0,0,1.923-11.48c-.349-2.849-1.317-5.847-3.561-7.577s-5.462-1.859-8.176-.954c-.377.121-.748.271-1.111.427a9.336,9.336,0,0,0-7.364-.427,22.314,22.314,0,0,0-7.207,4.544,16.471,16.471,0,0,0-3.361,3.561c-1.374,2.136-1.773,4.771-2.293,7.285a71.218,71.218,0,0,1-4.807,14.093c-.385.8-1.424,2.229-2.265,3.6l-1.524-.313c-.662,6.345-5.975,11-9.208,16.486-1.574,2.663-2.678,5.576-4.095,8.332a80.77,80.77,0,0,1-5.405,8.667q-2.884,4.273-5.776,8.467a120.342,120.342,0,0,1-7.834,10.6c-2.614-.214-5.227-.406-7.834-.449a63.585,63.585,0,0,0-13.039,1.161,36.315,36.315,0,0,1-.463-4.565v-.278c0-.37.043-.812.093-1.289a26.35,26.35,0,0,0-1.26-44.581,19.163,19.163,0,0,0,.271-2.421V251.1a3.357,3.357,0,0,0-.05-.712,9.418,9.418,0,0,0-.242-1.424c-.057-.228-.121-.456-.2-.712a6.729,6.729,0,0,0-.591-1.282.616.616,0,0,0-.05-.071c-.093-.15-.185-.3-.292-.442s-.093-.114-.135-.171a3.4,3.4,0,0,0-.242-.3l-.178-.185c-.078-.085-.157-.171-.242-.249l-.2-.178-.249-.221-.228-.171-.256-.192-.249-.164-.256-.164c-.085-.057-.178-.107-.271-.157l-.264-.15-.285-.142-.263-.128-.313-.135-.256-.114-.342-.128-.242-.093-.37-.128-.221-.071-.406-.128-.192-.057-.442-.121-.171-.05-.463-.114-.135-.036-.513-.114h-.085l-.755-.164q-4.679-.961-9.415-1.659a21.21,21.21,0,0,0-7.784-.135c-3.518.783-6.452,3.162-9.742,4.636-3.888,1.752-8.2,2.215-12.349,3.176s-8.411,2.606-11.01,6c-1.98,2.592-2.77,5.889-3.361,9.1-4.928,26.805.385,54.3,1.389,81.548.392,10.6-.085,21.941-6.1,30.623l17.5-.463c.84,0,1.688-.05,2.542-.1s1.709-.114,2.55-.214a16.864,16.864,0,0,0,6.345-1.9,10.946,10.946,0,0,0,2.471-1.923c2.379-2.45,3.646-5.875,4.807-9.151.392-1.1.783-2.222,1.132-3.347.142-.47.278-.94.4-1.424l.057-.228.2.093a44.058,44.058,0,0,0,2.371,3.917c3.055,4.5,6.929,8.346,10.775,12.171,7.641,7.584,15.454,15.3,25.032,20.175,3.233,1.631,6.73,3.005,9.194,5.7,1.211,1.3,2.258,2.977,3.974,3.425,1.068.278,2.243,0,3.262.456,1.5.627,2.044,2.428,2.735,3.91s2.25,2.991,3.732,2.314a7.485,7.485,0,0,0,2.792,7.428,5.455,5.455,0,0,1,1.809,1.624,5.9,5.9,0,0,1,.37,1.909,7.542,7.542,0,0,0,2.7,4.622c-1.389,2.3-.278,5.6-.242,8.467,0,2.407-.79,4.729-1.332,7.072-1.574,6.872-.712,14.065.57,20.994.712,3.824,1.617,7.784,4.109,10.753.812.961,1.78,1.795,2.635,2.728a25.352,25.352,0,0,1,4.024,6.132,48.07,48.07,0,0,1,4.365,13.987,25.466,25.466,0,0,0,2.065,7.05c1.56,3.4.135,7.592,1.531,11.067.634,1.56,1.8,2.891,2.179,4.522.534,2.371-.712,4.743-1.047,7.157-.812,5.654,3.269,10.9,3.639,16.6a1.31,1.31,0,0,1-.2.961c-.278.313-.755.306-1.132.484-.712.342-.9,1.3-1.132,2.1s-.869,1.7-1.659,1.46c-11.7,6.26-23.814,12.042-35.515,18.3l-5.341,2.849-28.564,15.261a2.065,2.065,0,0,0-1.147,1.866c0,.342.043.712.071,1.033-2,.5-3.924,1.1-5.291,1.346-.563.107-1.125.214-1.681.335a1.8,1.8,0,0,0,.256-.712,1.424,1.424,0,0,0-1.26-1.424,4.566,4.566,0,0,0-2.058.271,30.029,30.029,0,0,1-4.985.919,35.578,35.578,0,0,0-5.975.712,6.792,6.792,0,0,0-4.629,3.561,8.638,8.638,0,0,0-.513,3.361,51.452,51.452,0,0,0,1.552,13.061,1.111,1.111,0,0,0,.52.833c.249.1.548,0,.8.114a1.068,1.068,0,0,1,.463.584c1.2,2.72,1.474,5.754,1.795,8.717q.712,6.587,1.8,13.139c.427,2.55.954,5.213,2.614,7.179,1.823,2.136,4.707,3.084,7.492,3.461,5.875.79,11.807-.4,17.6-1.617a5.158,5.158,0,0,0,2.97-1.346,3.354,3.354,0,0,0,.712-2.371c-.135-2.927-2.8-4.985-5.22-6.63l-3.3-2.286a1.424,1.424,0,0,1-.712-1.609l.214-4.323H259.3c.712-3.048,1.859-5.975,4.1-8.069,1.545-1.424,3.561-2.421,5.177-3.717a12.818,12.818,0,0,0,7.2,2.642c4.273-5.754,10.291-9.671,16.308-13.531a159.548,159.548,0,0,1,15.133-8.446q6.31-3.119,12.819-5.847c6.125-2.578,12.363-4.878,18.609-7.122a74.928,74.928,0,0,0,12.206-5.177c9.97-5.761,17.013-17.263,15.667-28.778-1.695-14.528,1.93-29.668,1.688-44.3-.071-4.273-.228-8.546-1.524-12.641a6.746,6.746,0,0,1,.847.712c2.592,2.421,3.219,6.267,5.7,9.03,1.93,2.172,4.864,3.561,6.032,6.21.89,2.03.762,4.771,2.621,5.939.527.335,1.154.477,1.681.8a5.625,5.625,0,0,1,1.56,1.688c1.973,2.813,4.017,5.825,4.23,9.258.093,1.36-.036,2.934.961,3.853.285.263.648.456.8.812.313.712-.513,1.467-.655,2.257-.207,1.1.876,1.93,1.545,2.849a4.479,4.479,0,0,1,0,5.277c-5.84,7.584-6.894,17.8-12,25.915-1.766,2.8-3.732,5.448-5.441,8.282-5.256,8.7-7.912,18.7-10.49,28.55a15.776,15.776,0,0,0,4.38,4.885,24.212,24.212,0,0,1-4.878,9.009,22.675,22.675,0,0,0-1.609,2.015,3.917,3.917,0,0,0-1.588-1.2,56.422,56.422,0,0,0-1.424,12.463c0,2.763.377,5.918,2.621,7.513a9.3,9.3,0,0,0,2.913,1.2l4.885,1.424a5.106,5.106,0,0,0,2.7.263c.577-.164,1.09-.52,1.681-.634a4.123,4.123,0,0,1,1.894.249l4.223,1.232a27.923,27.923,0,0,1,4.173,1.474c1.2.577,2.315,1.325,3.5,1.966a42.257,42.257,0,0,0,6.1,2.507l7.278,2.507a26.485,26.485,0,0,0,6.31,1.638c1.5.128,3.012,0,4.487.256,1.125.192,2.215.6,3.347.712a8.775,8.775,0,0,0,5.27-1.567,4.708,4.708,0,0,0,1.524-1.375c1.068-1.666.15-3.867-.89-5.548a21.938,21.938,0,0,0-7.527-7.834c-1.289-.712-2.685-1.239-4.017-1.894-3.789-1.852-6.644-4.942-10.227-7.057a2.428,2.428,0,0,0-3.069.207c-2.977-1.93-6.2-3.817-7.834-6.958a15.666,15.666,0,0,1-1.424-4.807c1.674.4,3.361.712,5.063.99C394.7,600.2,397.728,589.269,403.148,579.583ZM334.731,275.858c-.142.8-.3,1.6-.47,2.4-1.424,6.687-3.461,14.179-8.119,19.157a17.8,17.8,0,0,1-5.256,3.468l-.52.256C323.721,292.181,329.063,283.877,334.731,275.858Z" transform="translate(-126.008 -116.315)"/><path class="h" d="M394.68,236.7c.527-2.485.926-5.092,2.3-7.235a16.529,16.529,0,0,1,3.368-3.561,22.46,22.46,0,0,1,7.221-4.515,9.021,9.021,0,0,1,8.183.947c2.279,1.723,3.24,4.693,3.6,7.527a18.533,18.533,0,0,1-1.93,11.394c-2.208,3.853-6.039,6.409-9.258,9.5a36.762,36.762,0,0,0-6.032,7.52,21.429,21.429,0,0,1-2.749,4.017,5.22,5.22,0,0,1-4.366,1.745,7.7,7.7,0,0,1-3.561-2.087c-1.317-1.154-4.864-3.212-4.985-5.042-.085-1.481,2.685-4.843,3.361-6.231a70.161,70.161,0,0,0,4.85-13.98Z" transform="translate(-179.063 -116.822)"/><path class="i" d="M394.68,236.7c.527-2.485.926-5.092,2.3-7.235a16.529,16.529,0,0,1,3.368-3.561,22.46,22.46,0,0,1,7.221-4.515,9.021,9.021,0,0,1,8.183.947c2.279,1.723,3.24,4.693,3.6,7.527a18.533,18.533,0,0,1-1.93,11.394c-2.208,3.853-6.039,6.409-9.258,9.5a36.762,36.762,0,0,0-6.032,7.52,21.429,21.429,0,0,1-2.749,4.017,5.22,5.22,0,0,1-4.366,1.745,7.7,7.7,0,0,1-3.561-2.087c-1.317-1.154-4.864-3.212-4.985-5.042-.085-1.481,2.685-4.843,3.361-6.231a70.161,70.161,0,0,0,4.85-13.98Z" transform="translate(-179.063 -116.822)"/><path class="c" d="M293,322.295a63.886,63.886,0,0,1,17.5-2.136c9.849.142,19.99,2.528,29.369-.491a50.944,50.944,0,0,0,7.043-3.055,17.877,17.877,0,0,0,5.256-3.447c4.665-4.942,6.673-12.384,8.133-19.029s1.837-13.467,2.215-20.254c2.428,1.132,4.985,2.25,7.677,2.022s5.377-2.279,5.363-4.985c-.4,6.288-.712,12.655.349,18.865.413,2.464,1.054,4.893,1.275,7.385.8,9-3.924,18-2.236,26.877a6.516,6.516,0,0,1-3.062,6.944c-2.421,1.3-5.27,1.467-7.933,2.136-5.22,1.332-9.778,4.65-15.019,5.889-2.443.577-4.985.712-7.392,1.332-3.461.912-6.6,2.891-10.127,3.518-2.642.47-5.363.15-8.033.377-2.322.192-4.6.8-6.929.862-5.7.142-11.088-3.084-14.877-7.364S295.379,327.479,293,322.295Z" transform="translate(-152.159 -131.238)"/><path class="i" d="M293,322.295a63.886,63.886,0,0,1,17.5-2.136c9.849.142,19.99,2.528,29.369-.491a50.944,50.944,0,0,0,7.043-3.055,17.877,17.877,0,0,0,5.256-3.447c4.665-4.942,6.673-12.384,8.133-19.029s1.837-13.467,2.215-20.254c2.428,1.132,4.985,2.25,7.677,2.022s5.377-2.279,5.363-4.985c-.4,6.288-.712,12.655.349,18.865.413,2.464,1.054,4.893,1.275,7.385.8,9-3.924,18-2.236,26.877a6.516,6.516,0,0,1-3.062,6.944c-2.421,1.3-5.27,1.467-7.933,2.136-5.22,1.332-9.778,4.65-15.019,5.889-2.443.577-4.985.712-7.392,1.332-3.461.912-6.6,2.891-10.127,3.518-2.642.47-5.363.15-8.033.377-2.322.192-4.6.8-6.929.862-5.7.142-11.088-3.084-14.877-7.364S295.379,327.479,293,322.295Z" transform="translate(-152.159 -131.238)"/><path class="j" d="M627.921,350.457A49.025,49.025,0,1,1,578.9,399.479a49.025,49.025,0,0,1,49.024-49.022m0-12.107a61.131,61.131,0,1,0,61.131,61.129A61.131,61.131,0,0,0,627.921,338.35Z" transform="translate(-230.969 -150.648)"/><rect class="j" width="14.328" height="15.083" transform="translate(387.901 173.402)"/><rect class="j" width="14.328" height="15.083" transform="matrix(0.857, 0.515, -0.515, 0.857, 427.787, 179.522)"/><rect class="j" width="14.328" height="15.083" transform="matrix(0.485, 0.875, -0.875, 0.485, 458.309, 204.22)"/><rect class="j" width="14.328" height="15.083" transform="matrix(-0.53, 0.848, -0.848, -0.53, 465.713, 280.871)"/><rect class="j" width="14.328" height="15.083" transform="matrix(-0.485, 0.875, -0.875, -0.485, 348.792, 211.528)"/><rect class="j" width="14.328" height="15.083" transform="matrix(0.53, 0.848, -0.848, 0.53, 340.988, 272.872)"/><rect class="j" width="14.328" height="15.083" transform="matrix(-0.857, 0.515, -0.515, -0.857, 373.882, 192.448)"/><rect class="j" width="14.328" height="15.083" transform="translate(387.901 309.167)"/><rect class="j" width="14.328" height="15.083" transform="matrix(0.857, -0.515, 0.515, 0.857, 420.022, 305.206)"/><rect class="j" width="14.328" height="15.083" transform="matrix(-0.857, -0.515, 0.515, -0.857, 366.117, 318.134)"/><rect class="j" width="17.348" height="12.819" transform="translate(320.026 242.794)"/><rect class="j" width="17.348" height="12.819" transform="translate(473.879 255.613) rotate(180)"/><path class="j" d="M787.841,226.547a49.025,49.025,0,1,1-49.025,49.022,49.025,49.025,0,0,1,49.025-49.022m0-12.107a61.131,61.131,0,1,0,61.131,61.129,61.131,61.131,0,0,0-61.131-61.129Z" transform="translate(-277.002 -114.981)"/><rect class="j" width="14.328" height="15.083" transform="translate(501.788 85.166)"/><rect class="j" width="14.328" height="15.083" transform="matrix(0.857, 0.515, -0.515, 0.857, 541.68, 91.274)"/><rect class="j" width="14.328" height="15.083" transform="matrix(0.485, 0.875, -0.875, 0.485, 572.2, 115.975)"/><rect class="j" width="14.328" height="15.083" transform="matrix(-0.53, 0.848, -0.848, -0.53, 579.598, 192.63)"/><rect class="j" width="14.328" height="15.083" transform="matrix(-0.485, 0.875, -0.875, -0.485, 462.674, 123.293)"/><rect class="j" width="14.328" height="15.083" transform="matrix(0.53, 0.848, -0.848, 0.53, 454.873, 184.635)"/><rect class="j" width="14.328" height="15.083" transform="matrix(-0.857, 0.515, -0.515, -0.857, 487.769, 104.204)"/><rect class="j" width="14.328" height="15.083" transform="translate(501.788 220.924)"/><rect class="j" width="14.328" height="15.083" transform="matrix(0.857, -0.515, 0.515, 0.857, 533.909, 216.966)"/><rect class="j" width="14.328" height="15.083" transform="matrix(-0.857, -0.515, 0.515, -0.857, 479.999, 229.889)"/><rect class="j" width="17.348" height="12.819" transform="translate(433.906 154.551)"/><rect class="j" width="17.348" height="12.819" transform="translate(587.773 167.37) rotate(180)"/><path class="j" d="M467.538,221.243h1.73a49.021,49.021,0,1,1-1.667,98.028c-.577-.007-1.154-.007-1.738-.007a49.021,49.021,0,1,1,1.674-98.028m0-12.1h0a61.127,61.127,0,1,0-2.094,122.235c.712-.009,1.424.027,2.137.027a61.127,61.127,0,1,0,2.087-122.235c-.712.009-1.424-.027-2.137-.027Z" transform="translate(-184.502 -113.451)"/><rect class="j" width="14.328" height="15.083" transform="translate(276.63 81.137) rotate(1.99)"/><rect class="j" width="14.328" height="15.083" transform="matrix(0.839, 0.544, -0.544, 0.839, 316.276, 88.623)"/><rect class="j" width="14.328" height="15.083" transform="translate(345.926 114.369) rotate(62.99)"/><rect class="j" width="14.328" height="15.083" transform="translate(350.671 191.21) rotate(123.99)"/><rect class="j" width="14.328" height="15.083" transform="matrix(-0.515, 0.857, -0.857, -0.515, 236.217, 117.863)"/><rect class="j" width="14.378" height="15.135" transform="translate(225.291 180.022) rotate(60.113)"/><rect class="j" width="14.328" height="15.083" transform="translate(261.973 99.654) rotate(150.99)"/><rect class="j" width="14.328" height="15.083" transform="translate(271.921 216.806) rotate(1.99)"/><rect class="j" width="14.328" height="15.083" transform="translate(304.167 213.975) rotate(-29.01)"/><rect class="j" width="14.328" height="15.083" transform="matrix(-0.839, -0.544, 0.544, -0.839, 249.854, 225.006)"/><rect class="j" width="17.348" height="12.819" transform="translate(206.391 148.122) rotate(1.99)"/><rect class="j" width="17.348" height="12.819" transform="translate(359.722 166.251) rotate(-178.01)"/><path class="h" d="M265.984,733.058a14.713,14.713,0,0,0-5.049,1.574c-2.136,1.3-3.454,3.6-4.394,5.925-2.357,5.825-2.849,12.221-2.948,18.516-.085,5.071.085,10.262,1.9,14.991a9.471,9.471,0,0,0,2.514,3.924,8.945,8.945,0,0,0,3.44,1.666c2.706.712,5.847.712,8.062-1,2.464-1.93,3.084-5.327,3.6-8.411.712-4.159,1.7-8.546,4.793-11.444,2.293-2.136,5.576-3.2,7.243-5.854,1.987-3.148.94-7.257-.328-10.761-1.1-3.034-2.72-9.194-5.9-10.746S269.289,732.46,265.984,733.058Z" transform="translate(-140.811 -263.657)"/><path class="h" d="M432.4,752.452a23.821,23.821,0,0,1-4.985,9.194c-1.424,1.624-3.169,3.6-2.421,5.612a5.021,5.021,0,0,0,1.325,1.773c10.44,10.219,25.046,15.19,39.539,17a1.361,1.361,0,0,0,.712,0c.427-.192.527-.712.584-1.189a15.048,15.048,0,0,0,0-4.558c-.712-3.561-3.81-6.032-6.844-7.983s-6.352-3.846-8.047-7.029c-2.136-3.96-1.218-9.116-3.732-12.819-2.037-3.012-5.818-4.273-9.408-4.864-1.246-.192-3.9-1.56-4.985-.926C433.031,747.3,432.781,751.213,432.4,752.452Z" transform="translate(-190.103 -268.132)"/><path class="j" d="M261.139,732.8a1.424,1.424,0,0,0-1.26-1.424,4.558,4.558,0,0,0-2.058.263,30.073,30.073,0,0,1-4.985.912,35.829,35.829,0,0,0-5.989.712,6.766,6.766,0,0,0-4.636,3.561,8.824,8.824,0,0,0-.513,3.34,51.019,51.019,0,0,0,1.553,12.968,1.125,1.125,0,0,0,.527.833c.249.1.548,0,.8.114a1.054,1.054,0,0,1,.463.577,28.617,28.617,0,0,1,1.8,8.66q.712,6.545,1.8,13.047c.427,2.528.954,5.184,2.621,7.122,1.823,2.136,4.714,3.055,7.5,3.433,5.882.783,11.822-.4,17.633-1.609a5.141,5.141,0,0,0,2.97-1.332,3.319,3.319,0,0,0,.712-2.357c-.135-2.906-2.806-4.985-5.227-6.58l-3.333-2.243a1.73,1.73,0,0,1-.584-.527,1.88,1.88,0,0,1-.164-1.068l.214-4.273a12.235,12.235,0,0,0-10.682,6.63c-.463.919-.9,1.994-1.859,2.35-1.189.449-2.514-.555-2.913-1.759a7.663,7.663,0,0,1,.107-3.76c1.951-10.454,1.5-21.2,2.685-31.769a7.236,7.236,0,0,1,1.061-3.347C259.957,734.478,261.032,733.78,261.139,732.8Z" transform="translate(-137.389 -263.774)"/><path class="j" d="M458.494,784.153c.491.812,1.253,1.424,1.709,2.265a1.918,1.918,0,0,1-.37,2.542,2.506,2.506,0,0,1-1.538.157,52.058,52.058,0,0,1-28.151-12.733A19.733,19.733,0,0,1,426.7,772.6c-.919-1.424-1.695-3.1-3.262-3.682A55.67,55.67,0,0,0,422.01,781.3c0,2.742.377,5.875,2.621,7.463a9.38,9.38,0,0,0,2.92,1.189l4.892,1.382a5.206,5.206,0,0,0,2.706.263c.577-.157,1.09-.52,1.681-.627a4.158,4.158,0,0,1,1.9.242l4.223,1.232a27.935,27.935,0,0,1,4.18,1.424c1.2.57,2.322,1.318,3.5,1.951a41.85,41.85,0,0,0,6.117,2.485l7.435,2.578a26.228,26.228,0,0,0,6.324,1.624c1.5.128,3.012,0,4.494.256,1.125.192,2.215.6,3.354.712a8.867,8.867,0,0,0,5.27-1.56,4.764,4.764,0,0,0,1.531-1.36c1.068-1.659.15-3.846-.9-5.519a21.672,21.672,0,0,0-7.535-7.755c-1.3-.712-2.692-1.239-4.024-1.887-3.789-1.837-6.659-4.907-10.241-7.008C459.077,776.419,456.9,781.539,458.494,784.153Z" transform="translate(-189.294 -274.587)"/><path class="h" d="M305.778,355.688a30.8,30.8,0,0,1-13.146,5.113,53.024,53.024,0,0,1-7.442.4,189.282,189.282,0,0,1-30.95-2.585c4.073-4.487,8.19-9.258,9.728-15.14a24.868,24.868,0,0,0,.463-9.486,71,71,0,0,0-2.891-11.943,82.75,82.75,0,0,0,13.082-.335c2.478-.249,8.546-2.507,10.682-.8,2,1.588.491,7.207.456,9.8v.278a31.534,31.534,0,0,0,2.5,11.437C291.393,349.435,298.094,355.189,305.778,355.688Z" transform="translate(-141.002 -145.446)"/><path class="i" d="M288.736,330.663a26.122,26.122,0,0,1-21.365,3.276A71,71,0,0,0,264.48,322a82.754,82.754,0,0,0,13.082-.335c2.478-.249,8.546-2.507,10.682-.8C290.281,322.452,288.771,328.07,288.736,330.663Z" transform="translate(-143.95 -145.432)"/><circle class="h" cx="26.065" cy="26.065" r="26.065" transform="translate(104.45 136.135)"/><path class="c" d="M379.266,449.324a12.107,12.107,0,0,1-5.875,10.461,23.216,23.216,0,0,1-6.409,2.243c-11.921,2.849-24.135,5.192-36.377,4.494a20.04,20.04,0,0,1-7.72-1.624,8.246,8.246,0,0,1-4.764-5.954,5.642,5.642,0,0,0-.377-1.894,5.341,5.341,0,0,0-1.809-1.609,7.414,7.414,0,0,1-2.749-7.357c-1.488.662-3.041-.833-3.739-2.307s-1.246-3.255-2.742-3.874c-1.018-.434-2.193-.178-3.269-.456-1.716-.442-2.763-2.136-3.974-3.4-2.471-2.642-5.975-4.009-9.208-5.633-9.593-4.836-17.412-12.5-25.068-20.033-3.853-3.8-7.734-7.62-10.789-12.107-.862-1.26-1.638-2.557-2.371-3.888a109.331,109.331,0,0,1-6.011-13.752c-.969-2.521-1.951-5.185-1.553-7.834.036-.242.085-.484.142-.712a14.992,14.992,0,0,1,2.364-4.779c2.649-3.9,6.125-7.584,10.682-8.781s9.108.249,13.737,1.232a35,35,0,0,0,4.665.712c4.907.349,9.764-.969,14.507-2.279l5.17-1.424c2.592-.712,3.888-3.846,6.509-4.394a9.138,9.138,0,0,1,3.511.178c5.32,1.011,10.682,2.314,15.361,5.021a25.307,25.307,0,0,1,2.984,2.03,18.88,18.88,0,0,1,6.936,10.248c1.068,4.508.064,9.322,1.147,13.83.883,3.725,3.119,6.972,5.313,10.113l12.726,18.174a112.923,112.923,0,0,0,9.365,12.206C366.4,433.6,379.1,439.218,379.266,449.324Z" transform="translate(-138.161 -155.233)"/><path class="h" d="M382.747,236.7c.527-2.485.919-5.092,2.293-7.235a16.529,16.529,0,0,1,3.368-3.561,22.537,22.537,0,0,1,7.221-4.515,9.021,9.021,0,0,1,8.183.947c2.279,1.723,3.24,4.693,3.6,7.527a18.533,18.533,0,0,1-1.93,11.394c-2.208,3.853-6.039,6.409-9.258,9.5a37.034,37.034,0,0,0-6.032,7.52,21.429,21.429,0,0,1-2.749,4.017,5.22,5.22,0,0,1-4.365,1.745,7.736,7.736,0,0,1-3.561-2.087c-1.318-1.154-4.871-3.212-4.985-5.042-.085-1.481,2.685-4.843,3.361-6.231A70.638,70.638,0,0,0,382.747,236.7Z" transform="translate(-175.626 -116.822)"/><path class="j" d="M446.641,613.536c-3.276,6.046-6.865,11.936-9.785,18.16-1.7,3.639-3.176,7.385-5.07,10.924-2.065,3.86-4.608,7.449-6.765,11.266-5.434,9.621-8.46,20.474-11.259,31.164a62.079,62.079,0,0,1-22.191-7.834c-.463-.271-.9-.556-1.332-.862a15.839,15.839,0,0,1-4.479-4.935c2.585-9.778,5.241-19.719,10.5-28.358,1.716-2.849,3.682-5.448,5.448-8.225,5.12-8.047,6.174-18.2,12.021-25.737a4.422,4.422,0,0,0,0-5.241c-.677-.876-1.752-1.709-1.552-2.792.15-.79.976-1.5.655-2.243-.15-.356-.513-.548-.8-.8-1-.919-.869-2.485-.954-3.831-.221-3.411-2.265-6.409-4.273-9.194a5.7,5.7,0,0,0-1.56-1.681c-.527-.32-1.154-.463-1.681-.79-1.866-1.168-1.731-3.888-2.628-5.9-1.168-2.656-4.109-4.009-6.039-6.167-2.457-2.742-3.084-6.566-5.7-8.966a7.126,7.126,0,0,0-.847-.712c1.3,4.024,1.424,8.318,1.517,12.555.249,14.521-3.383,29.554-1.681,43.982,1.339,11.444-5.7,22.867-15.7,28.586a75.59,75.59,0,0,1-12.221,5.149c-6.26,2.215-12.5,4.5-18.637,7.065q-6.509,2.692-12.819,5.8a161.968,161.968,0,0,0-15.162,8.389c-6.025,3.831-12.05,7.727-16.33,13.445-4.138-.114-7.926-2.6-10.547-5.8S282.5,672.823,281,669.006c-1.332-3.312-2.642-6.73-2.742-10.3a2.037,2.037,0,0,1,1.239-1.781l28.607-15.162,5.348-2.849c11.715-6.217,23.85-11.964,35.565-18.174.79.235,1.424-.662,1.659-1.424s.4-1.745,1.139-2.087c.37-.178.855-.171,1.132-.484a1.353,1.353,0,0,0,.2-.947c-.377-5.7-4.465-10.875-3.646-16.493.349-2.393,1.581-4.75,1.047-7.122-.377-1.631-1.545-2.948-2.179-4.494-1.424-3.454,0-7.613-1.538-11a25.425,25.425,0,0,1-2.065-7.008A47.594,47.594,0,0,0,340.4,555.8a25.319,25.319,0,0,0-4.024-6.089c-.862-.926-1.83-1.752-2.649-2.713-2.485-2.948-3.4-6.879-4.109-10.682-1.282-6.886-2.136-14.029-.57-20.852.541-2.329,1.367-4.636,1.332-7.022-.036-3.155-1.424-6.837.769-9.116a7.079,7.079,0,0,1,3.2-1.645,96.7,96.7,0,0,1,15.511-2.849l23.893-3.126c2.735-.363,5.533-.712,7.948-2.072,3.24-1.788,5.391-5.1,6.708-8.546,4.195,3.062,5.761,8.767,9.108,12.719,1.631,1.93,3.646,3.49,5.434,5.263a60.976,60.976,0,0,1,5.989,7.385c4.985,6.844,9.97,13.737,13.531,21.414,1.859,3.988,3.3,8.147,4.779,12.285,5.833,16.287,15.34,31.748,19.285,48.583.969,4.116,3.482,7.834,3.874,12.042C450.85,605.246,448.785,609.562,446.641,613.536Z" transform="translate(-147.916 -191.736)"/><path class="i" d="M338.643,475.46a7.335,7.335,0,0,0-.883,3.525c.534-2.635,4.159-4.095,4.394-6.7.107-1.2-.114-1.147-.855-.513C340.174,472.746,339.683,474.427,338.643,475.46Z" transform="translate(-165.043 -188.925)"/><path class="i" d="M353.613,488.029a5.434,5.434,0,0,0-1.652,2.443,6.2,6.2,0,0,0-.335,4.273c.534-.249.712-.9.876-1.474a10.285,10.285,0,0,1,1.132-2.521c.427-.712,2.4-2.3,2.393-3.048C356.006,486.555,354.14,487.624,353.613,488.029Z" transform="translate(-168.967 -193.491)"/><path class="i" d="M323.107,361.525a26.875,26.875,0,0,1-5.5,3.66c-5.163,2.614-10.882,4-16.08,6.53a79.624,79.624,0,0,0-7.463,4.351l-15.454,9.792a16.57,16.57,0,0,0-3.4,2.585c-1.859,1.98-1.852,5.462-3.561,7.584a10.431,10.431,0,0,1-7.5,3.461,24.363,24.363,0,0,1-8.354-1.424,43.37,43.37,0,0,1-4.771-1.738,22.485,22.485,0,0,1-4.586-2.621,13.087,13.087,0,0,1-5.4-8.546,16.878,16.878,0,0,1,.919-6.965,26.726,26.726,0,0,1,1.645-4.223,16.992,16.992,0,0,1,1.31-2.222c3.561-5.028,9.806-7.385,15.853-8.546,3.176-.62,6.409-1,9.621-1.538a35.009,35.009,0,0,0,4.665.712c4.907.349,9.764-.969,14.507-2.279l5.17-1.424c2.592-.712,3.888-3.846,6.509-4.394a9.137,9.137,0,0,1,3.511.178c5.32,1.011,10.682,2.314,15.361,5.021a25.312,25.312,0,0,1,3,2.044Z" transform="translate(-137.187 -155.207)"/><path class="c" d="M335.711,267.35c-.662,6.3-5.982,10.932-9.258,16.379-1.574,2.642-2.678,5.541-4.095,8.275a82.023,82.023,0,0,1-5.412,8.617l-5.79,8.4c-3.4,4.942-6.844,9.927-11.2,14.065-7.584,1.289-13.944,6.922-21.137,9.657-5.754,2.186-12.028,2.485-18.067,3.66s-12.3,3.561-15.845,8.546a22.369,22.369,0,0,0-2.963,6.409,16.607,16.607,0,0,0-.911,6.958,13.209,13.209,0,0,0,5.391,8.546,29.829,29.829,0,0,0,9.358,4.358,24.534,24.534,0,0,0,8.354,1.424,10.164,10.164,0,0,0,7.506-3.461c1.766-2.222,1.681-5.6,3.561-7.584a16.623,16.623,0,0,1,3.411-2.585l15.454-9.792a79.625,79.625,0,0,1,7.456-4.323c5.2-2.542,10.917-3.917,16.08-6.53s9.97-6.929,11-12.626c3.148-17.5,15.261-32.26,25.637-46.717-.342-.071-.235-.847-.363-1.175a14.922,14.922,0,0,0-7.592-7.648C342.974,268.575,339.271,268.119,335.711,267.35Z" transform="translate(-137.185 -130.211)"/><path class="j" d="M269.765,262.633a9.656,9.656,0,0,0-1.075-5.5c-1.716-2.849-5.313-3.853-8.546-4.522q-4.693-.961-9.429-1.652a21.287,21.287,0,0,0-7.8-.128c-3.561.776-6.459,3.133-9.756,4.6-3.9,1.738-8.211,2.193-12.37,3.155s-8.418,2.592-11.024,5.968c-1.98,2.564-2.77,5.84-3.361,9.03-4.935,26.627.377,53.938,1.389,81,.392,10.533-.085,21.792-6.1,30.444l17.526-.463c4.487-.114,9.308-.349,12.819-3.119,3.1-2.436,4.572-6.359,5.9-10.077a31.18,31.18,0,0,0,2.236-9.016c.278-6.36-3.333-12.605-2.136-18.865.876-4.672,4.273-8.446,7.912-11.516s7.684-5.7,10.625-9.457c5.256-6.644,6.26-15.724,5.6-24.163-.392-5.021-1.289-10.041-.855-15.062a18.99,18.99,0,0,1,3.974-10.554C268.063,269.419,269.522,267.34,269.765,262.633Z" transform="translate(-125.876 -125.365)"/><path class="i" d="M268.675,258c-1.688-2.806-5.192-3.817-8.4-4.487a8.282,8.282,0,0,1,4.159,3.276,9.6,9.6,0,0,1,1.075,5.5c-.242,4.7-1.7,6.78-4.494,10.105a18.97,18.97,0,0,0-3.974,10.554c-.434,5.021.463,10.041.855,15.062.655,8.439-.349,17.519-5.6,24.163-2.948,3.732-6.993,6.409-10.625,9.457s-7.043,6.844-7.919,11.516c-1.175,6.26,2.436,12.505,2.136,18.865a31.193,31.193,0,0,1-2.243,9.016c-1.325,3.717-2.8,7.634-5.9,10.07-3.561,2.77-8.354,3.012-12.819,3.126l-12.413.328c-.278.456-.563.912-.869,1.346l17.526-.463c4.487-.114,9.308-.349,12.819-3.119,3.1-2.436,4.572-6.36,5.9-10.077a31.179,31.179,0,0,0,2.236-9.016c.278-6.359-3.333-12.605-2.136-18.865.876-4.672,4.273-8.446,7.912-11.516s7.684-5.7,10.625-9.457c5.256-6.644,6.26-15.724,5.6-24.163-.392-5.021-1.289-10.041-.855-15.062a18.991,18.991,0,0,1,3.974-10.554c2.792-3.319,4.273-5.4,4.494-10.105A9.657,9.657,0,0,0,268.675,258Z" transform="translate(-125.861 -126.227)"/><path class="i" d="M465.857,624.115l-32.168,78.444a15.84,15.84,0,0,1-4.479-4.935c2.585-9.778,5.241-19.719,10.5-28.358,1.716-2.849,3.682-5.448,5.448-8.225,5.12-8.047,6.174-18.2,12.021-25.737a4.422,4.422,0,0,0,0-5.241c-.677-.876-1.752-1.709-1.552-2.792.15-.791.976-1.5.655-2.243-.15-.356-.513-.548-.8-.8-1-.919-.869-2.485-.954-3.831-.221-3.411-2.265-6.409-4.273-9.194a5.7,5.7,0,0,0-1.56-1.681c-.527-.321-1.154-.463-1.681-.791-1.866-1.168-1.731-3.888-2.628-5.9-1.168-2.656-4.109-4.009-6.039-6.167-2.457-2.742-3.084-6.566-5.7-8.966l-.221-.555L434.943,572Z" transform="translate(-191.367 -217.904)"/></g></svg>