<svg xmlns="http://www.w3.org/2000/svg" width="241.459" height="140.334" viewBox="0 0 241.459 140.334"><defs><style>.a{fill:#ff9a00;}.b{fill:#0467d7;}.c{fill:none;stroke:#ff9a00;stroke-miterlimit:10;stroke-width:2.802px;}.d{fill:#f7991c;}</style></defs><g transform="translate(-529.57 -258.248)"><g transform="translate(614.36 258.247)"><path class="a" d="M927.029,332.409a21.079,21.079,0,1,0-37.49,13.229l3.269-3.271a16.481,16.481,0,1,1,3.291,3.266l-3.339,3.221a21.081,21.081,0,0,0,34.269-16.444Z" transform="translate(-869.973 -296.437)"/><g transform="translate(32.051 28.456)"><path class="a" d="M952.9,363.218a3.439,3.439,0,0,1-1.77,2.909l1.97,7.575h-6.975l2.045-7.393a3.446,3.446,0,0,1,1.349-6.641A3.5,3.5,0,0,1,952.9,363.218Z" transform="translate(-946.01 -359.668)"/></g><path class="b" d="M893.188,268.784a35.976,35.976,0,0,0-53.508,47.941.041.041,0,0,1,.008.011l7.786-7.805a.94.94,0,0,1,1.33,0l.528.525,2.006-2.006a21.06,21.06,0,1,1,3.221,3.215l-2.048,1.975.527.525a.94.94,0,0,1,0,1.33l-7.923,7.831L867.752,345.1l25.437-25.439A35.973,35.973,0,0,0,893.188,268.784Z" transform="translate(-831.776 -258.247)"/><g transform="translate(7.908 45.927)"><path class="c" d="M859.96,434.49l7.794-7.794a.888.888,0,0,1,.659-.281.929.929,0,0,1,.671.281l.527.525,5.275-5.28" transform="translate(-859.96 -421.94)"/><path class="c" d="M879.72,449.02l7.859-7.73a.891.891,0,0,0,.286-.657.942.942,0,0,0-.275-.673l-.522-.53,5.323-5.23" transform="translate(-874.176 -430.76)"/></g></g><path class="a" d="M544.143,641.933h15.134v12.892H529.57V615.59h14.573Z" transform="translate(0 -257.083)"/><path class="a" d="M831.977,612.59c10.65,0,15.692,6.164,15.692,6.164L840.944,629.4s-3.364-3.083-7.286-3.083a6.725,6.725,0,0,0,0,13.451c3.925,0,7.286-3.083,7.286-3.083l6.725,10.651s-5.045,6.167-15.692,6.167a20.282,20.282,0,0,1-20.737-20.459C811.237,621.557,820.207,612.59,831.977,612.59Z" transform="translate(-202.642 -254.924)"/><path class="a" d="M984.525,635.208l11.77,19.617H979.48l-7.847-15.7v15.692H957.06V615.59h14.573v15.692l6.725-15.692h16.815Z" transform="translate(-307.549 -257.083)"/><g transform="translate(695.365 358.507)"><path class="b" d="M1162.525,654.825h-16.254l-1.122-5.606h-7.286l-1.119,5.606H1120.49l11.489-39.235h19.056C1151.092,615.814,1162.525,654.825,1162.525,654.825Zm-19.056-14.573-1.961-10.089-1.961,10.089Z" transform="translate(-1120.49 -615.59)"/><path class="b" d="M1298.863,641.933H1314v12.892H1284.29V615.59h14.573v26.343Z" transform="translate(-1238.332 -615.59)"/></g><path class="d" d="M665.528,606.78c-12.32,0-22.308,9.464-22.308,21.135s9.988,21.135,22.308,21.135,22.311-9.464,22.311-21.135S677.851,606.78,665.528,606.78Zm-5.718,32.83,3.406-12.32a5.743,5.743,0,0,1,2.245-11.069,5.822,5.822,0,0,1,5.645,5.912,5.74,5.74,0,0,1-2.952,4.851l3.28,12.626Z" transform="translate(-81.763 -250.744)"/></g></svg>