<svg xmlns="http://www.w3.org/2000/svg" width="22" height="27.5" viewBox="0 0 22 27.5"><defs><style>.a{fill:#fff;}</style></defs><path class="a" d="M15,2A11,11,0,0,0,4,13c0,7.425,9.694,15.812,10.106,16.17a1.375,1.375,0,0,0,1.788,0C16.375,28.812,26,20.425,26,13A11,11,0,0,0,15,2Zm0,24.269C12.071,23.519,6.75,17.592,6.75,13a8.25,8.25,0,0,1,16.5,0C23.25,17.592,17.929,23.532,15,26.269ZM15,7.5A5.5,5.5,0,1,0,20.5,13,5.5,5.5,0,0,0,15,7.5Zm0,8.25A2.75,2.75,0,1,1,17.75,13,2.75,2.75,0,0,1,15,15.75Z" transform="translate(-4 -2)"/></svg>