<svg xmlns="http://www.w3.org/2000/svg" width="51" height="51" viewBox="0 0 51 51"><defs><style>.a{fill:#0467d7;}</style></defs><path class="a" d="M45.688,51H35.063A1.065,1.065,0,0,1,34,49.938V30.813a1.066,1.066,0,0,1,1.063-1.062h5.612L42.09,25.5H35.063A1.065,1.065,0,0,1,34,24.438V17.531c0-2.954,3.313-4.781,6.375-4.781H42.5V8.5H38.25c-3.931,0-8.5,3.249-8.5,7.438v8.5A1.066,1.066,0,0,1,28.688,25.5H21.25v4.25h7.438a1.066,1.066,0,0,1,1.063,1.063V49.938A1.066,1.066,0,0,1,28.688,51H5.313A5.319,5.319,0,0,1,0,45.688V5.313A5.319,5.319,0,0,1,5.313,0H45.688A5.317,5.317,0,0,1,51,5.313V45.688A5.317,5.317,0,0,1,45.688,51Zm-9.562-2.125h9.563a3.191,3.191,0,0,0,3.188-3.187V5.313a3.191,3.191,0,0,0-3.187-3.187H5.313A3.191,3.191,0,0,0,2.125,5.313V45.688a3.191,3.191,0,0,0,3.188,3.188H27.625v-17H20.188a1.063,1.063,0,0,1-1.062-1.062V24.438a1.063,1.063,0,0,1,1.063-1.062h7.438V15.938c0-5.472,5.612-9.562,10.625-9.562h5.313a1.066,1.066,0,0,1,1.063,1.063v6.375a1.066,1.066,0,0,1-1.062,1.063H40.375c-1.774,0-4.25,1.014-4.25,2.656v5.844h7.438a1.066,1.066,0,0,1,1.007,1.4l-2.125,6.375a1.069,1.069,0,0,1-1.012.727H36.125Z"/></svg>