<svg xmlns="http://www.w3.org/2000/svg" width="529.479" height="279.931" viewBox="0 0 529.479 279.931"><defs><style>.a{fill:#3f3d56;}.b{fill:#ff6584;}.c,.e{fill:#ff9a00;}.d{opacity:0.1;}.e{opacity:0.4;}.f{fill:#ccc;}.g{fill:#f2f2f2;}</style></defs><g transform="translate(0 0)"><path class="a" d="M174.676,542.263l-.863-.237c9.623-52.279,33.807-99.753,68.1-133.678,52.7-52.06,123.65-67.255,187.706-40.2s112.172,92.534,127.3,173.241l-.862.24c-20.371-109.264-98.761-185.575-190.63-185.575C274.758,356.052,194.537,434.364,174.676,542.263Z" transform="translate(-96.914 -266.354)"/><circle class="b" cx="29.349" cy="29.349" r="29.349" transform="translate(386.981 89.475)"/><rect class="a" width="1.081" height="42.688" transform="translate(408.287 236.164)"/><path class="c" d="M911,615.146c.069,14.927-10.433,27.076-10.433,27.076s-10.613-12.052-10.682-26.979,10.433-27.076,10.433-27.076S910.927,600.22,911,615.146Z" transform="translate(-492.43 -373.543)"/><path class="d" d="M911,615.146c.069,14.927-10.433,27.076-10.433,27.076s-10.613-12.052-10.682-26.979,10.433-27.076,10.433-27.076S910.927,600.22,911,615.146Z" transform="translate(-492.43 -373.543)"/><circle class="e" cx="16.885" cy="16.885" r="16.885" transform="translate(216.725 117.523)"/><circle class="e" cx="11.845" cy="11.845" r="11.845" transform="translate(194.916 130.627)"/><circle class="e" cx="11.845" cy="11.845" r="11.845" transform="translate(86.185 164.669)"/><circle class="e" cx="16.885" cy="16.885" r="16.885" transform="translate(380.634 116.134)"/><path class="a" d="M87.9,692.482a10.876,10.876,0,0,0,4.051,5.479,9.363,9.363,0,0,0-3.315-12.253A10.875,10.875,0,0,0,87.9,692.482Z" transform="translate(-57.295 -418.377)"/><path class="c" d="M85.28,694.643a10.875,10.875,0,0,1,2.818,6.2,9.363,9.363,0,0,1-9.1-8.854A10.878,10.878,0,0,1,85.28,694.643Z" transform="translate(-53.335 -421.266)"/><path class="a" d="M699.9,692.482a10.876,10.876,0,0,0,4.051,5.479,9.363,9.363,0,0,0-3.315-12.253A10.876,10.876,0,0,0,699.9,692.482Z" transform="translate(-388.926 -418.377)"/><path class="c" d="M697.28,694.643a10.875,10.875,0,0,1,2.818,6.2,9.363,9.363,0,0,1-9.1-8.854A10.879,10.879,0,0,1,697.28,694.643Z" transform="translate(-384.625 -421.266)"/><path class="a" d="M66.235,441.82,64,438.095,84.865,420.21h53.653v5.216l-19.375,20.866-22.356,4.471Z" transform="translate(-29.418 -193.15)"/><path class="f" d="M190.225,429.715V418.056H183.2v3.677l-2.211-2.513L163.1,437.1l-2.981,2.98-3.726,14.9,6.707,16.394h34.278V437.85Z" transform="translate(-71.888 -192.16)"/><rect class="g" width="56.634" height="34.278" transform="translate(34.582 244.945)"/><rect class="a" width="11.923" height="10.433" transform="translate(71.469 255.75)"/><rect class="f" width="10.433" height="23.846" transform="translate(56.193 255.377)"/><path class="a" d="M78.125,476.341v-3.726H73.654v3.726h4.471Z" transform="translate(-33.855 -217.238)"/><path class="a" d="M77.752,485.026h-4.1v3.726h4.471v-3.726Z" transform="translate(-33.855 -222.942)"/><rect class="a" width="4.471" height="3.726" transform="translate(47.25 255.377)"/><rect class="a" width="4.471" height="3.726" transform="translate(47.25 262.084)"/><path class="a" d="M194.656,477.03V473.3h-4.471v3.726h4.471Z" transform="translate(-87.419 -217.554)"/><path class="a" d="M194.284,485.716h-4.1v3.726h4.471v-3.726Z" transform="translate(-87.419 -223.26)"/><rect class="a" width="4.471" height="3.726" transform="translate(110.218 255.75)"/><rect class="a" width="4.471" height="3.726" transform="translate(110.218 262.456)"/><path class="a" d="M465.235,441.82,463,438.095l20.865-17.884h53.653v5.216l-19.375,20.866-22.356,4.471Z" transform="translate(-252.162 -193.15)"/><path class="f" d="M589.225,429.715V418.056H582.2v3.677l-2.211-2.513L562.1,437.1l-2.981,2.98-3.726,14.9,6.707,16.394h34.278V437.85Z" transform="translate(-299.724 -192.16)"/><rect class="g" width="56.634" height="34.278" transform="translate(212.1 244.945)"/><rect class="a" width="11.923" height="10.433" transform="translate(246.615 255.75)"/><rect class="f" width="10.433" height="23.846" transform="translate(233.586 255.377)"/><path class="a" d="M477.125,476.341v-3.726h-4.471v3.726h4.471Z" transform="translate(-252.807 -217.238)"/><path class="a" d="M476.752,485.026h-4.1v3.726h4.471v-3.726Z" transform="translate(-252.807 -222.942)"/><rect class="a" width="4.471" height="3.726" transform="translate(226.262 255.377)"/><rect class="a" width="4.471" height="3.726" transform="translate(226.262 262.084)"/><path class="a" d="M593.656,477.03V473.3h-4.471v3.726h4.471Z" transform="translate(-315.135 -217.554)"/><path class="a" d="M593.284,485.716h-4.1v3.726h4.471v-3.726Z" transform="translate(-315.135 -223.26)"/><rect class="a" width="4.471" height="3.726" transform="translate(280.465 255.75)"/><rect class="a" width="4.471" height="3.726" transform="translate(280.465 262.456)"/><path class="a" d="M277.346,325.978,273.62,323l20.865-18.63h52.908v16.394l-34.278,23.1Z" transform="translate(-148.988 -139.902)"/><path class="f" d="M390.664,314.817V304.739h-7.025v2.468l-2.622-2.841L363.878,323l-6.706,4.471-10.4,75.975,15.683,15.683H398.9V323.742Z" transform="translate(-187.688 -139.902)"/><rect class="g" width="56.634" height="96.129" transform="translate(125.345 183.094)"/><rect class="f" width="10.433" height="23.473" transform="translate(145.959 255.75)"/><path class="a" d="M289.813,482.547v-3.726h-4.471v3.726h4.471Z" transform="translate(-152.62 -220.09)"/><path class="a" d="M289.441,491.232h-4.1v3.726h4.471v-3.726Z" transform="translate(-152.62 -225.795)"/><rect class="a" width="4.471" height="3.726" transform="translate(139.136 258.731)"/><rect class="a" width="4.471" height="3.726" transform="translate(139.136 265.437)"/><path class="a" d="M346.355,482.547v-3.726h-4.471v3.726h4.471Z" transform="translate(-182.862 -220.09)"/><path class="a" d="M345.983,491.232h-4.1v3.726h4.471v-3.726Z" transform="translate(-182.862 -225.795)"/><rect class="a" width="4.471" height="3.726" transform="translate(165.436 258.731)"/><rect class="a" width="4.471" height="3.726" transform="translate(165.436 265.437)"/><path class="a" d="M404.276,344.639v-3.726H399.8v3.726h4.471Z" transform="translate(-213.842 -156.701)"/><path class="a" d="M403.9,353.325h-4.1v3.726h4.471v-3.726Z" transform="translate(-213.842 -162.406)"/><rect class="a" width="4.471" height="3.726" transform="translate(192.377 184.212)"/><rect class="a" width="4.471" height="3.726" transform="translate(192.377 190.919)"/><path class="a" d="M404.276,383.253v-3.726H399.8v3.726h4.471Z" transform="translate(-213.842 -174.45)"/><path class="a" d="M403.9,391.939h-4.1v3.726h4.471v-3.726Z" transform="translate(-213.842 -180.155)"/><rect class="a" width="4.471" height="3.726" transform="translate(192.377 205.077)"/><rect class="a" width="4.471" height="3.726" transform="translate(192.377 211.784)"/><path class="a" d="M404.276,421.867v-3.726H399.8v3.726h4.471Z" transform="translate(-213.842 -192.199)"/><path class="a" d="M403.9,430.553h-4.1v3.726h4.471v-3.726Z" transform="translate(-213.842 -197.904)"/><rect class="a" width="4.471" height="3.726" transform="translate(192.377 225.942)"/><rect class="a" width="4.471" height="3.726" transform="translate(192.377 232.649)"/><path class="a" d="M404.276,460.481v-3.726H399.8v3.726h4.471Z" transform="translate(-213.842 -209.948)"/><path class="a" d="M403.9,469.167h-4.1v3.726h4.471v-3.726Z" transform="translate(-213.842 -215.653)"/><rect class="a" width="4.471" height="3.726" transform="translate(192.377 246.807)"/><rect class="a" width="4.471" height="3.726" transform="translate(192.377 253.514)"/><rect class="a" width="43.221" height="8.942" transform="translate(131.266 187.938)"/><rect class="a" width="43.221" height="8.942" transform="translate(131.266 205.822)"/><rect class="a" width="43.221" height="8.942" transform="translate(131.266 223.707)"/><rect class="a" width="43.221" height="8.942" transform="translate(131.266 241.591)"/><path class="a" d="M680.346,325.978,676.62,323l20.865-18.63h52.908v16.394l-34.278,23.1Z" transform="translate(-368.425 -139.902)"/><path class="f" d="M793.664,314.817V304.739h-7.025v2.468l-2.622-2.841L766.878,323l-6.706,4.471-10.4,75.975,15.683,15.683H801.9V323.742Z" transform="translate(-405.808 -139.902)"/><rect class="g" width="56.634" height="96.129" transform="translate(309.959 183.094)"/><rect class="f" width="10.433" height="23.473" transform="translate(333.109 255.75)"/><path class="a" d="M692.813,482.547v-3.726h-4.471v3.726h4.471Z" transform="translate(-368.171 -220.09)"/><path class="a" d="M692.441,491.232h-4.1v3.726h4.471v-3.726Z" transform="translate(-368.171 -225.795)"/><rect class="a" width="4.471" height="3.726" transform="translate(326.585 258.731)"/><rect class="a" width="4.471" height="3.726" transform="translate(326.585 265.437)"/><path class="a" d="M749.355,482.547v-3.726h-4.471v3.726h4.471Z" transform="translate(-398.413 -220.09)"/><path class="a" d="M748.983,491.232h-4.1v3.726h4.471v-3.726Z" transform="translate(-398.413 -225.795)"/><rect class="a" width="4.471" height="3.726" transform="translate(352.885 258.731)"/><rect class="a" width="4.471" height="3.726" transform="translate(352.885 265.437)"/><path class="a" d="M807.276,344.639v-3.726H802.8v3.726h4.471Z" transform="translate(-429.393 -156.701)"/><path class="a" d="M806.9,353.325h-4.1v3.726h4.471v-3.726Z" transform="translate(-429.393 -162.406)"/><rect class="a" width="4.471" height="3.726" transform="translate(379.826 184.212)"/><rect class="a" width="4.471" height="3.726" transform="translate(379.826 190.919)"/><path class="a" d="M807.276,383.253v-3.726H802.8v3.726h4.471Z" transform="translate(-429.393 -174.45)"/><path class="a" d="M806.9,391.939h-4.1v3.726h4.471v-3.726Z" transform="translate(-429.393 -180.155)"/><rect class="a" width="4.471" height="3.726" transform="translate(379.826 205.077)"/><rect class="a" width="4.471" height="3.726" transform="translate(379.826 211.784)"/><path class="a" d="M807.276,421.867v-3.726H802.8v3.726h4.471Z" transform="translate(-429.393 -192.199)"/><path class="a" d="M806.9,430.553h-4.1v3.726h4.471v-3.726Z" transform="translate(-429.393 -197.904)"/><rect class="a" width="4.471" height="3.726" transform="translate(379.826 225.942)"/><rect class="a" width="4.471" height="3.726" transform="translate(379.826 232.649)"/><path class="a" d="M807.276,460.481v-3.726H802.8v3.726h4.471Z" transform="translate(-429.393 -209.948)"/><path class="a" d="M806.9,469.167h-4.1v3.726h4.471v-3.726Z" transform="translate(-429.393 -215.653)"/><rect class="a" width="4.471" height="3.726" transform="translate(379.826 246.807)"/><rect class="a" width="4.471" height="3.726" transform="translate(379.826 253.514)"/><rect class="a" width="43.221" height="8.942" transform="translate(316.659 187.938)"/><rect class="a" width="43.221" height="8.942" transform="translate(316.659 205.822)"/><rect class="a" width="43.221" height="8.942" transform="translate(316.659 223.707)"/><rect class="a" width="43.221" height="8.942" transform="translate(316.659 241.591)"/><path class="a" d="M901.346,325.978,897.62,323l20.865-18.63h52.909v16.394l-34.279,23.1Z" transform="translate(-497.489 -139.902)"/><path class="f" d="M1014.664,314.817V304.739h-7.025v2.468l-2.621-2.841L987.879,323l-6.707,4.471-10.4,75.975,15.683,15.683H1022.9V323.742Z" transform="translate(-531.114 -139.902)"/><rect class="g" width="56.634" height="96.129" transform="translate(400.131 183.094)"/><rect class="f" width="10.433" height="23.473" transform="translate(422.113 255.75)"/><path class="a" d="M913.813,482.547v-3.726h-4.471v3.726h4.471Z" transform="translate(-486.376 -220.09)"/><path class="a" d="M913.441,491.232h-4.1v3.726h4.471v-3.726Z" transform="translate(-486.376 -225.795)"/><rect class="a" width="4.471" height="3.726" transform="translate(413.916 258.731)"/><rect class="a" width="4.471" height="3.726" transform="translate(413.916 265.437)"/><path class="a" d="M970.355,482.547v-3.726h-4.471v3.726h4.471Z" transform="translate(-528.867 -220.09)"/><path class="a" d="M969.983,491.232h-4.1v3.726h4.471v-3.726Z" transform="translate(-528.867 -225.795)"/><rect class="a" width="4.471" height="3.726" transform="translate(444.469 258.731)"/><rect class="a" width="4.471" height="3.726" transform="translate(444.469 265.437)"/><path class="a" d="M1028.274,344.639v-3.726H1023.8v3.726h4.474Z" transform="translate(-555.488 -156.701)"/><path class="a" d="M1027.9,353.325h-4.1v3.726h4.474v-3.726Z" transform="translate(-555.488 -162.406)"/><rect class="a" width="4.471" height="3.726" transform="translate(475.769 184.212)"/><rect class="a" width="4.471" height="3.726" transform="translate(475.769 190.919)"/><path class="a" d="M1028.274,383.253v-3.726H1023.8v3.726h4.474Z" transform="translate(-555.488 -174.45)"/><path class="a" d="M1027.9,391.939h-4.1v3.726h4.474v-3.726Z" transform="translate(-555.488 -180.155)"/><rect class="a" width="4.471" height="3.726" transform="translate(475.769 205.077)"/><rect class="a" width="4.471" height="3.726" transform="translate(475.769 211.784)"/><path class="a" d="M1028.274,421.867v-3.726H1023.8v3.726h4.474Z" transform="translate(-555.488 -192.199)"/><path class="a" d="M1027.9,430.553h-4.1v3.726h4.474v-3.726Z" transform="translate(-555.488 -197.904)"/><rect class="a" width="4.471" height="3.726" transform="translate(475.769 225.942)"/><rect class="a" width="4.471" height="3.726" transform="translate(475.769 232.649)"/><path class="a" d="M1028.274,460.481v-3.726H1023.8v3.726h4.474Z" transform="translate(-555.488 -209.948)"/><path class="a" d="M1027.9,469.167h-4.1v3.726h4.474v-3.726Z" transform="translate(-555.488 -215.653)"/><rect class="a" width="4.471" height="3.726" transform="translate(475.769 246.807)"/><rect class="a" width="4.471" height="3.726" transform="translate(475.769 253.514)"/><rect class="a" width="43.221" height="8.942" transform="translate(406.465 187.938)"/><rect class="a" width="43.221" height="8.942" transform="translate(406.465 205.822)"/><rect class="a" width="43.221" height="8.942" transform="translate(406.465 223.707)"/><rect class="a" width="43.221" height="8.942" transform="translate(406.465 241.591)"/><rect class="a" width="529.479" height="1.081" transform="translate(0 278.851)"/><rect class="a" width="1.081" height="42.688" transform="translate(117.319 236.164)"/><path class="c" d="M286,615.146c.069,14.927-10.433,27.076-10.433,27.076s-10.613-12.052-10.682-26.979,10.433-27.076,10.433-27.076S285.927,600.22,286,615.146Z" transform="translate(-156.82 -373.543)"/><rect class="a" width="1.081" height="42.688" transform="translate(210.428 236.164)"/><path class="c" d="M486,615.146c.069,14.927-10.433,27.076-10.433,27.076s-10.613-12.052-10.682-26.979,10.433-27.076,10.433-27.076S485.927,600.22,486,615.146Z" transform="translate(-264.215 -373.543)"/><rect class="a" width="1.081" height="42.688" transform="translate(396.183 236.164)"/><path class="c" d="M885,615.146c.069,14.927-10.433,27.076-10.433,27.076s-10.613-12.052-10.682-26.979,10.433-27.076,10.433-27.076S884.927,600.22,885,615.146Z" transform="translate(-478.469 -373.543)"/><ellipse class="c" cx="20.533" cy="4.62" rx="20.533" ry="4.62" transform="translate(252.953 83.727)"/><path class="c" d="M621.551,214.747c0,13.131-23.775,50.252-23.775,50.252S574,227.878,574,214.747a23.775,23.775,0,1,1,47.551,0Z" transform="translate(-324.766 -190.972)"/><circle class="g" cx="13.509" cy="13.509" r="13.509" transform="translate(259.551 10.267)"/></g></svg>