<svg xmlns="http://www.w3.org/2000/svg" width="409" height="316.197" viewBox="0 0 409 316.197"><defs><style>.a{fill:#f2f2f2;}.b{fill:#2f2e41;}.c{fill:#ffb8b8;}.d{opacity:0.2;}.e{fill:#3f3d56;}.f{fill:#ff9a00;}.g{fill:#a0616a;}.h{fill:#d0cde1;}.i{opacity:0.1;}</style></defs><path class="a" d="M477.476,151.427l-6.092,27.4-4.945,22.228L462.5,218.783l-4.942,22.228L441.406,313.63,241.293,221.161l-14.71-6.8-18.619-8.605-14.715-6.8-17.7-8.179,10.033-14.6,8.343-12.138,10.555-15.357,8.341-12.131L306.686,0l99.432,88.161,17.706,15.7,14.119,12.518,17.709,15.7Z" transform="translate(-108.202)"/><path class="b" d="M229.4,344.637c-13.381-7.46-21.712-17.644-24.76-30.27-2.263-9.374-1.613-19.923,1.933-31.354a83.975,83.975,0,0,1,11.678-23.588c27.1-38.359,29.546-63.354,26.825-77.567-2.982-15.585-12.672-22.057-12.77-22.121l.418-.643c.1.065,10.045,6.688,13.1,22.589,1.761,9.167.932,19.62-2.462,31.068-4.225,14.248-12.462,30.1-24.484,47.117a83.214,83.214,0,0,0-11.572,23.372c-5.815,18.747-6.638,44.5,22.468,60.727Z" transform="translate(-151.003 -112.599)"/><path class="b" d="M260.243,344.637c13.381-7.46,21.712-17.644,24.76-30.27,2.263-9.374,1.613-19.923-1.933-31.354a83.973,83.973,0,0,0-11.678-23.588c-27.1-38.359-29.546-63.354-26.825-77.567,2.982-15.585,12.672-22.057,12.77-22.121l-.418-.643c-.1.065-10.045,6.688-13.1,22.589-1.761,9.167-.932,19.62,2.462,31.068,4.225,14.248,12.462,30.1,24.484,47.117a83.212,83.212,0,0,1,11.572,23.372c5.815,18.747,6.638,44.5-22.468,60.727Z" transform="translate(-175.41 -112.599)"/><path class="b" d="M1006.4,260.637c-13.381-7.46-21.711-17.644-24.759-30.27-2.263-9.374-1.613-19.923,1.933-31.354a83.974,83.974,0,0,1,11.678-23.588c27.1-38.359,29.546-63.354,26.825-77.567-2.982-15.585-12.672-22.057-12.77-22.121l.418-.643c.1.065,10.045,6.688,13.1,22.589,1.761,9.167.932,19.62-2.462,31.068-4.225,14.248-12.462,30.1-24.484,47.117a83.217,83.217,0,0,0-11.572,23.372c-5.815,18.747-6.638,44.5,22.468,60.727Z" transform="translate(-629.914 -60.825)"/><path class="b" d="M1037.239,260.637c13.381-7.46,21.712-17.644,24.76-30.27,2.263-9.374,1.613-19.923-1.933-31.354a83.974,83.974,0,0,0-11.678-23.588c-27.1-38.359-29.545-63.354-26.825-77.567,2.982-15.585,12.672-22.057,12.77-22.121l-.418-.643c-.1.065-10.045,6.688-13.1,22.589-1.761,9.167-.932,19.62,2.462,31.068,4.225,14.248,12.462,30.1,24.485,47.117a83.219,83.219,0,0,1,11.572,23.372c5.815,18.747,6.638,44.5-22.468,60.727Z" transform="translate(-654.318 -60.825)"/><path class="b" d="M410.12,309.177c-10.054-16.988-29.945-17.78-29.945-17.78s-19.383-2.479-31.817,23.395c-11.589,24.116-27.584,47.4-2.575,53.046l4.517-14.06,2.8,15.107a97.864,97.864,0,0,0,10.7.183c26.783-.865,52.289.253,51.468-9.358C414.175,346.933,419.794,325.523,410.12,309.177Z" transform="translate(-230.647 -194.106)"/><path class="c" d="M427.194,420.747c3.464,7.663,5.649,16.8,6.953,26.944l27.814-1.738c-6.395-9.061-8.518-19.461-6.084-31.29Z" transform="translate(-288.989 -270.121)"/><path class="d" d="M427.194,420.747c3.464,7.663,5.649,16.8,6.953,26.944l27.814-1.738c-6.395-9.061-8.518-19.461-6.084-31.29Z" transform="translate(-288.989 -270.121)"/><path class="c" d="M76.105,810.844s-14.4,7.711-7.09,14.294,16.954-8.714,16.954-8.714Z" transform="translate(-66.947 -514.311)"/><path class="b" d="M333.338,685.008l-.225,10.534-.48,22.761v0l-.14,6.592H240.438l3.741-20.775,0-.015,3.35-18.594,1.5-8.327v0l75.619-10.43Z" transform="translate(-148.196 -410.961)"/><path class="e" d="M411.682,722.912l-.226,10.534c-26.753-.687-68.222-7.145-85.579-10.03l1.495-8.327,75.618-10.43Z" transform="translate(-226.541 -448.863)"/><circle class="c" cx="21.729" cy="21.729" r="21.729" transform="translate(129.948 114.555)"/><path class="f" d="M399.3,577.934s2.608,23.468-13.038,21.729L383.655,576.2l-13.907-13.907-39.113-.869-28.682,26.944s-.869-27.814,2.608-30.421,11.3-8.692,11.3-8.692v-4.346l-23.468-47.8S306.3,468.418,317.6,467.549l14.776-.869s5.215-2.608,5.215-3.477-.869-7.823,3.477-6.084c0,0,.391-8.918,4.972-6.2,0,0,14.42,11.3,29.057.5,0,0,6.823-1.252,5.954,2.225s0,6.084,1.738,6.084,9.561,2.608,9.561,4.346c0,.374.565,3.972,1.451,9.387v.009c3.225,19.739,10.717,63.615,10.717,63.615S412.337,548.382,399.3,577.934Z" transform="translate(-205.902 -292.151)"/><path class="f" d="M161.626,560.794l-6.084,4.346L99.915,636.412,70.363,659.88s16.514-2.608,13.038,11.3l101.694-58.235Z" transform="translate(-69.052 -360.191)"/><path class="e" d="M456.985,472.215v.009c-1.156,6.8-38.826,5.38-44.041,5.38a24.281,24.281,0,0,1-14.776-4.346c-5.215-3.477-2.608-7.823-2.608-7.823s4.44-3.382,4.44-4.251-.869-7.823,3.477-6.084c0,0,.391-8.918,4.972-6.2,0,0,15.194,12.074,29.831,1.27,0,0,6.823-1.252,5.954,2.225s0,6.084,1.738,6.084,9.561,2.608,9.561,4.346C455.534,463.2,456.1,466.8,456.985,472.215Z" transform="translate(-269.089 -290.907)"/><path class="c" d="M519.673,410.434s-6.953-14.776-13.907-7.823,7.823,17.384,7.823,17.384Z" transform="translate(-336.271 -261.547)"/><path class="f" d="M522.416,416.929s-10.737,13.569-14.06,14.607c0,0,9.714,38.412,21.883,48.842l6.953,35.636s29.552-12.168,22.6-32.159l-.208-.6A197.184,197.184,0,0,0,535.759,436.3Z" transform="translate(-339.013 -271.518)"/><path class="d" d="M463.1,483.933l21.383,58.84-7.822-35.636Z" transform="translate(-285.437 -298.277)"/><path class="b" d="M372.036,279.138l-19.652-10.293-27.138,4.211-5.615,24.8,13.977-.538,3.9-9.111v8.961l6.449-.248,3.743-14.5,2.339,15.44,22.927-.468Z" transform="translate(-197.008 -165.705)"/><path class="g" d="M1007.08,675.277l11.149,39.772s-2.3,35.229,8.424,28.336c10.972-7.053,6.893-36.76,6.893-36.76l-6.428-35.681Z" transform="translate(-646.407 -428.082)"/><path class="h" d="M1005.2,391.415l9.207,9.207v43.87s5.416,8.124,4.333,10.291-2.167,2.167-1.083,3.791,2.166,2.708,1.083,3.791a4.062,4.062,0,0,0,0,4.874c1.083,1.083,3.25,2.708,1.625,4.333s-3.791.542-1.625,6.5,5.958,7.583,4.874,9.749-1.083,7.583-1.083,7.583l-23.289,3.25-4.876-61.2Z" transform="translate(-638.573 -255.792)"/><path class="e" d="M960.151,623.161l-27.081,1.083,1.083,11.374,23.831-4.333Z" transform="translate(-575.106 -384.091)"/><path class="g" d="M804.32,205.986l-3.25,32.5,33.038,4.875,2.437-18.685,2.437-18.686Z" transform="translate(-493.747 -126.961)"/><path class="i" d="M804.32,205.527l-3.25,32.5,33.038,4.875,2.437-18.686,2.437-18.686Z" transform="translate(-493.747 -126.678)"/><path class="g" d="M689.43,646.944l18.415,39.538s3.25,18.415,8.124,18.956,9.749-18.956,9.749-18.956l-6.5-10.291-7.583-29.247Z" transform="translate(-450.62 -413.29)"/><path class="b" d="M850.742,763.289H746.635c.825-13.048,1.344-21.092,1.344-21.092l1.383-2.177,6.7-10.534,4.787-7.521,1.669-2.626.62-.972,6.557-1.2,67.645-12.343a82.639,82.639,0,0,0,4.729,14.62c.461,1.05.957,2.1,1.487,3.137a32.278,32.278,0,0,0,6.243,8.78c.562.527.968,1.933,1.232,4.094C851.685,740.752,851.5,750.6,850.742,763.289Z" transform="translate(-485.879 -448.967)"/><circle class="g" cx="25.997" cy="25.997" r="25.997" transform="translate(302.72 37.592)"/><path class="h" d="M706.423,338.522l-3.791-2.166s-16.79,11.374-22.206,36.829-9.207,31.955-9.207,31.955-5.416,1.083-1.625,4.874,3.791,3.25.542,5.416-5.416-2.166-3.25,2.166,4.875,3.25,2.708,5.958-5.958,2.708-3.791,4.874-2.166,7.041.542,9.207,3.791,2.708,3.791,6.5a19.178,19.178,0,0,0,1.083,6.5h28.164s-5.416-10.291-3.791-12.457,2.166-4.333,1.083-5.416-4.333,1.083-1.083-1.625,4.333-1.083,3.25-4.333-3.25-1.625-1.083-3.25,3.791-1.083,2.708-2.708-3.25-1.625-1.083-2.708,3.791,0,3.25-2.708-1.083-1.625,0-2.708,12.457-37.913,12.457-39S706.423,338.522,706.423,338.522Z" transform="translate(-435.658 -221.856)"/><path class="e" d="M636.839,590.691l-34.121,2.166,8.666,8.124,23.831.542Z" transform="translate(-371.491 -364.078)"/><path class="e" d="M772.706,734.473l-7.041,13s21.123,2.708,28.705,5.416,27.08,6.5,27.08,6.5l4.874-18.956Z" transform="translate(-497.608 -467.239)"/><path class="e" d="M878.011,706.011l5.958,17.873L907.8,719.01l-2.708-16.79Z" transform="translate(-541.17 -432.82)"/><path class="h" d="M842.458,272.9s-1.625-1.083-5.416,1.083-16.248,3.25-22.206-3.25S804.545,258.815,802.92,259.9s-2.708,13.54-2.708,13.54l-5.416,4.333-31.955,11.374,2.708,73.117,4.874,16.79s-3.791,13,1.083,20.581-2.708,10.291-2.708,10.291-1.625,2.166-.542,7.583-1.083,25.456-1.083,25.456,46.037,20.581,94.24,2.708L856,425.089l-2.708-46.037s2.708-7.583,2.166-10.832S871.7,319.475,871.7,319.475s-2.708-22.748-16.79-27.622-16.248-9.749-16.248-9.749S845.166,275.063,842.458,272.9Z" transform="translate(-495.868 -174.645)"/><path class="b" d="M852.5,149.986s-2.7-4.05-1.661-8.411a25.5,25.5,0,0,0,.727-7.58,75.028,75.028,0,0,1,4.361-11.006c2.18-3.946,1.142-5.607,8-6.853s4.05-10.176,22.117-.519a5.3,5.3,0,0,0,5.5,2.077c3.738-.727,5.088,4.465,5.088,4.465s2.492-1.454,3.427.623,7.6-1.246,7.6,12.771-7.583,26.539-7.583,26.539.556-23.579-11.8-25.967-25.647-9.345-28.866-.415A68.077,68.077,0,0,1,852.5,149.986Z" transform="translate(-549.958 -83.067)"/><ellipse class="g" cx="2.437" cy="3.25" rx="2.437" ry="3.25" transform="translate(347.944 66.026)"/></svg>