<svg xmlns="http://www.w3.org/2000/svg" width="1085" height="492.202" viewBox="0 0 1085 492.202"><defs><style>.a{fill:#3f3d56;}.b{fill:#a0616a;}.c{fill:#2f2e41;}.d{fill:#ff9a00;}.e{fill:#f2f2f2;}.f{fill:#ccc;}.g{opacity:0.1;}.h{fill:#fff;}.i{fill:#d0cde1;}</style></defs><g transform="translate(-0.714 0)"><path class="a" d="M157.3,687.545l-1.849-.407c20.613-89.653,72.416-171.066,145.865-229.243,112.89-89.275,264.86-115.332,402.069-68.938S943.655,547.641,976.06,686.043l-1.847.411c-43.632-187.375-211.545-318.24-408.331-318.24C371.674,368.214,199.839,502.511,157.3,687.545Z" transform="translate(-34.186 -197.763)"/><path class="b" d="M1051.119,482.28l2.937,20.386-20.556,1.853,2.936-25.019Z" transform="translate(-49.095 -35.176)"/><path class="b" d="M983.558,364.916s1.958,25.019,1.958,25.946-13.7,64.865-13.7,64.865-19.577,35.212,0,34.286,13.7-33.359,13.7-33.359l20.556-53.745-8.81-37.992Z" transform="translate(-78.439 -197.657)"/><path class="b" d="M985.436,482.28,982.5,502.666l20.556,1.853-2.937-25.019Z" transform="translate(-48.016 -35.176)"/><path class="c" d="M993.866,460.549l-4.894,6.486s-2.936,27.8,0,37.066,8.809,51.892,8.809,54.672.979,4.633,0,5.56-3.915.927-1.958,2.78,1.958,7.413,1.958,7.413v4.633l12.725,68.571s-7.831,8.34-1.958,8.34,27.407,0,26.428-9.266l-1.958-.927s-2.937-61.158-1.958-63.938,0-8.34,0-8.34-1.958-2.78,0-3.707,1.958-8.34,1.958-8.34l8.81-56.525s7.831,37.992,12.725,41.7,3.915,12.973,3.915,12.973l3.915,81.544s-3.915,9.266,0,11.12,20.556,8.34,21.534-.927,5.873-89.884,5.873-93.591-.979-5.56,0-8.34-.979-2.78,0-2.78-1.958-2.78-1.958-4.633V496.688s.979-9.266,1.958-11.12-.979-3.707,0-6.486-1.958-12.046-1.958-12.046l-44.048-11.12Z" transform="translate(-78.959 -204.333)"/><path class="c" d="M1028.4,684.549s4.894-4.633-1.958-4.633a33.359,33.359,0,0,0-12.725,2.78l-4.894,16.68s-20.066,15.29,2.447,13.436,19.087-.463,19.087-.463,6.852-1.853,7.831-3.707-1.958-28.726-1.958-28.726S1033.293,687.329,1028.4,684.549Z" transform="translate(-79.232 -220.766)"/><path class="c" d="M1071.722,684.549s-4.894-4.633,1.958-4.633a33.359,33.359,0,0,1,12.725,2.78l4.894,16.679s20.066,15.29-2.447,13.436-22.024-.463-22.024-.463-6.852-1.853-7.831-3.707,4.894-28.726,4.894-28.726S1066.828,687.329,1071.722,684.549Z" transform="translate(-80.466 -220.766)"/><rect class="a" width="8.714" height="325.856" transform="translate(273.133 164.416)"/><path class="d" d="M405.024,390.358C405.578,504.3,320.9,597.043,320.9,597.043s-85.58-92-86.135-205.942,84.126-206.685,84.126-206.685S404.469,276.414,405.024,390.358Z" transform="translate(-41.597 -184.416)"/><rect class="e" width="674.418" height="135.289" transform="translate(206.994 355.367)"/><path class="a" d="M203.5,387.983,274.122,242.5H838.159L890.89,387.983Z" transform="translate(-4.369 -17.79)"/><rect class="e" width="272.117" height="85.251" transform="translate(369.826 233.977)"/><path class="a" d="M407.569,177.5,364.5,262.751H687.516L662.066,177.5Z" transform="translate(-20.044 -13.021)"/><rect class="f" width="214.855" height="108.417" transform="translate(393.869 382.239)"/><rect class="f" width="114.524" height="104.71" transform="translate(240.37 385.946)"/><rect class="a" width="59.22" height="98.224" transform="translate(641.238 392.432)"/><rect class="a" width="1085" height="2" transform="translate(0.714 490)"/><rect class="a" width="5.75" height="215.03" transform="translate(176.035 275.267)"/><path class="d" d="M269.068,500.288c.366,75.191-55.514,136.389-55.514,136.389s-56.474-60.709-56.84-135.9,55.514-136.39,55.514-136.39S268.7,425.1,269.068,500.288Z" transform="translate(-34.213 -197.619)"/><path class="g" d="M269.068,500.288c.366,75.191-55.514,136.389-55.514,136.389s-56.474-60.709-56.84-135.9,55.514-136.39,55.514-136.39S268.7,425.1,269.068,500.288Z" transform="translate(-34.213 -197.619)"/><rect class="a" width="5.75" height="215.03" transform="translate(101.279 275.267)"/><path class="d" d="M192.7,500.288c.366,75.191-55.514,136.389-55.514,136.389s-56.474-60.709-56.84-135.9,55.514-136.39,55.514-136.39S192.33,425.1,192.7,500.288Z" transform="translate(-32.596 -197.619)"/><rect class="a" width="28.876" height="25.483" transform="translate(761.956 397.992)"/><rect class="a" width="28.876" height="25.483" transform="translate(799.651 397.992)"/><rect class="a" width="28.876" height="26.409" transform="translate(761.956 432.741)"/><rect class="a" width="28.876" height="26.409" transform="translate(799.651 432.741)"/><rect class="a" width="22.598" height="19.943" transform="translate(396.99 257.304)"/><rect class="a" width="22.598" height="19.943" transform="translate(426.495 257.304)"/><rect class="a" width="22.598" height="20.668" transform="translate(396.99 284.499)"/><rect class="a" width="22.598" height="20.668" transform="translate(426.495 284.499)"/><rect class="a" width="22.598" height="19.943" transform="translate(562.111 257.304)"/><rect class="a" width="22.598" height="19.943" transform="translate(591.616 257.304)"/><rect class="a" width="22.598" height="20.668" transform="translate(562.111 284.499)"/><rect class="a" width="22.598" height="20.668" transform="translate(591.616 284.499)"/><rect class="a" width="22.598" height="19.943" transform="translate(480.028 257.304)"/><rect class="a" width="22.598" height="19.943" transform="translate(509.533 257.304)"/><rect class="a" width="22.598" height="20.668" transform="translate(480.028 284.499)"/><rect class="a" width="22.598" height="20.668" transform="translate(509.533 284.499)"/><rect class="e" width="14.229" height="12.557" transform="translate(654.82 402.383)"/><rect class="e" width="14.229" height="12.557" transform="translate(673.401 402.383)"/><rect class="e" width="14.229" height="13.013" transform="translate(654.82 419.506)"/><rect class="e" width="14.229" height="13.013" transform="translate(673.401 419.506)"/><ellipse class="e" cx="3.5" cy="4" rx="3.5" ry="4" transform="translate(688.714 445)"/><rect class="e" width="214" height="1" transform="translate(394.714 394)"/><rect class="e" width="214" height="1" transform="translate(394.714 403)"/><rect class="e" width="214" height="1" transform="translate(394.714 411)"/><rect class="e" width="214" height="1" transform="translate(394.714 419)"/><rect class="e" width="214" height="1" transform="translate(394.714 428)"/><rect class="e" width="214" height="1" transform="translate(394.714 436)"/><rect class="e" width="214" height="1" transform="translate(394.714 444)"/><rect class="e" width="214" height="1" transform="translate(394.714 453)"/><rect class="e" width="214" height="1" transform="translate(394.714 461)"/><rect class="e" width="214" height="1" transform="translate(394.714 469)"/><rect class="e" width="214" height="1" transform="translate(394.714 478)"/><rect class="e" width="114.524" height="1.853" transform="translate(240.37 393.822)"/><rect class="e" width="114.524" height="1.853" transform="translate(240.37 402.162)"/><rect class="e" width="114.524" height="1.853" transform="translate(240.37 410.502)"/><rect class="e" width="114.524" height="1.853" transform="translate(240.37 418.841)"/><rect class="e" width="114.524" height="1.853" transform="translate(240.37 427.181)"/><rect class="e" width="114.524" height="1.853" transform="translate(240.37 435.521)"/><rect class="e" width="114.524" height="1.853" transform="translate(240.37 443.861)"/><rect class="e" width="114.524" height="1.853" transform="translate(240.37 452.201)"/><rect class="e" width="114.524" height="1.853" transform="translate(240.37 460.54)"/><rect class="e" width="114.524" height="1.853" transform="translate(240.37 468.88)"/><rect class="e" width="114.524" height="1.853" transform="translate(240.37 477.22)"/><ellipse class="d" cx="79.5" cy="75" rx="79.5" ry="75" transform="translate(755.714 149)"/><path class="h" d="M925.841,230.846h-42.09V191H868.09v39.846H826v14.826h42.09v39.846h15.661V245.672h42.09Z" transform="translate(-39.219 -14.012)"/><ellipse class="b" cx="25.45" cy="24.093" rx="25.45" ry="24.093" transform="translate(902.182 45.869)"/><path class="b" d="M998,278.182s3.915,18.533,3.915,21.313,16.64,11.12,16.64,11.12l18.6-22.239s-11.746-15.753-11.746-19.459Z" transform="translate(-79.177 -190.615)"/><path class="i" d="M1012.175,303.38s-8.531-2.15-11.118-5.708c0,0-27.057,25.167-27.057,29.8l21.534,36.139s0,12.973,1.958,13.9,0,0,0,3.707-5.873,27.8-3.915,31.506,3.915.927,1.958,6.486-6.852,35.212-6.852,35.212,17.619-5.56,43.069,3.707,55.794-3.707,55.794-3.707-7.831-16.68-5.873-22.239-4.894-15.753-4.894-15.753l-4.894-85.251s6.852-37.992,1.958-39.846l-9.788-3.707-31.343-3.647S1024.9,302.453,1012.175,303.38Z" transform="translate(-78.67 -191.72)"/><path class="i" d="M983.741,323.916l-9.788,6.486s-4.894,13.9,0,20.386,6.852,15.753,6.852,15.753l19.577-1.853Z" transform="translate(-78.622 -194.65)"/><path class="b" d="M1055.92,332.916s-5.668,13.8-4.484,27.451a13.975,13.975,0,0,0,2.526,6.835h0l-69.443,31.21s-31.378,3.076-23.547,16.048,36.217-6.486,36.217-6.486,74.392-10.193,80.265-20.386,9.788-52.818,9.788-52.818Z" transform="translate(-78.367 -195.31)"/><path class="c" d="M986.964,231.263l-4.415-1.673s9.23-9.62,22.073-8.784l-3.612-3.765s8.829-3.346,16.856,5.438c4.219,4.617,9.1,10.045,12.145,16.159h4.728l-1.973,4.113,6.906,4.113-7.088-.739a21.6,21.6,0,0,1-.671,10.652l.19,3.251s-8.217-12.035-8.217-13.708V250.5s-4.415-3.764-4.415-6.274l-2.408,2.928-1.2-4.6-14.849,4.6,2.408-3.764-9.23,1.255,3.612-4.6s-10.434,5.438-10.836,10.039-5.619,10.457-5.619,10.457l-2.408-4.183S975.326,237.537,986.964,231.263Z" transform="translate(-78.763 -186.763)"/><path class="i" d="M1060.852,291.916h14.682s10.767,1.853,13.7,20.386,5.873,23.166,2.936,23.166S1054,334.541,1054,333.615,1060.852,291.916,1060.852,291.916Z" transform="translate(-80.363 -192.302)"/></g></svg>