<svg xmlns="http://www.w3.org/2000/svg" xmlns:xlink="http://www.w3.org/1999/xlink" width="436.276" height="334.827" viewBox="0 0 436.276 334.827"><defs><style>.a,.c,.n,.y{fill:#ff9a00;}.a,.d,.o,.v{opacity:0.1;}.b,.f{fill:none;stroke-miterlimit:10;}.b{stroke:#535461;stroke-width:2px;}.d,.g,.i{fill:#fff;}.e,.y{opacity:0.2;}.f{stroke:#ff9a00;}.g,.n{opacity:0.5;}.h{fill:url(#a);}.j{fill:#eee;}.k{fill:#ff5252;}.l{fill:#ff0;}.m{fill:#69f0ae;}.p{fill:#f4f4f4;}.q{fill:url(#b);}.r{fill:#72351c;}.s{fill:#333;}.t{fill:#4d8af0;}.u{fill:#f55f44;}.w{fill:#fdb797;}.x{fill:#f0e4e4;}.z{fill:url(#c);}.aa{fill:#565171;}.ab{fill:#8f5a6a;}.ac{fill:#b45181;}.ad{opacity:0.7;}.ae{fill:#e0e0e0;}.af{fill:#535461;}.ag{fill:#3e3f49;}</style><linearGradient id="a" x1="0.5" y1="1" x2="0.5" gradientUnits="objectBoundingBox"><stop offset="0" stop-color="gray" stop-opacity="0.251"/><stop offset="0.54" stop-color="gray" stop-opacity="0.122"/><stop offset="1" stop-color="gray" stop-opacity="0.102"/></linearGradient><linearGradient id="b" x1="0.503" y1="1" x2="0.503" y2="-0.002" xlink:href="#a"/><linearGradient id="c" x1="0.927" y1="1" x2="0.927" y2="0" xlink:href="#a"/></defs><g transform="translate(0.005 -0.008)"><path class="a" d="M100.114,219.124c14.813,18.835,9.058,46.345-.353,68.384-3.154,7.379-6.715,15.183-5.4,23.094,1.625,9.673,10.259,16.749,19.325,20.5a57.519,57.519,0,0,0,51.489-4.242c13.122-8.165,22.52-21.44,35.866-29.231,22.338-13.039,50.766-8.115,75.019.868,17.16,6.353,35.92,14.617,52.969,7.978,12-4.674,20.289-16.047,24.81-28.1,2.181-5.817,3.764-12.12,7.932-16.737a29.779,29.779,0,0,1,9.021-6.332c30.236-14.991,68.421-6.964,97.789-23.588,19.832-11.219,32.53-32.409,38.152-54.5s4.986-45.248,3.54-67.993c-1.014-16.167-2.834-33.423-13.163-45.9-10.928-13.2-29.68-18.108-46.628-15.6S418.166,59.172,404.65,69.7c-16.89,13.163-32.559,29.551-53.3,34.9-14.127,3.632-28.981,1.662-43.549.956-24.353-1.151-48.714,1.409-72.934,4.2-23.185,2.68-46.537,5.63-68.625,13.172-15.627,5.318-28.15,15.008-42.909,21.76-9.619,4.413-20.11,5.63-29.222,11.252C82.9,162.869,72.608,174.911,75.483,189,78.217,202.409,92.253,209.127,100.114,219.124Z" transform="translate(-75 -47.08)"/><path class="b" d="M207.157,493.849s-1.371-40.62-23.347-63.572a61.572,61.572,0,0,1-16.886-35.1,103.568,103.568,0,0,1-.515-18.935" transform="translate(-128.305 -239.468)"/><path class="c" d="M132.958,325.248c1.5,4.537,14.077,14.958,14.077,14.958s3.852-15.876,2.348-20.41a8.652,8.652,0,0,0-16.425,5.447Z" transform="translate(-108.621 -203.01)"/><path class="c" d="M116.82,391.2c3.74,2.992,19.944,4.911,19.944,4.911s-5.4-15.419-9.141-18.407a8.651,8.651,0,0,0-10.8,13.5Z" transform="translate(-97.71 -239.342)"/><path class="c" d="M146.257,491.21c4.728.7,19.7-5.817,19.7-5.817s-12.44-10.587-17.169-11.285a8.652,8.652,0,1,0-2.53,17.119Z" transform="translate(-112.334 -296.616)"/><path class="c" d="M192.77,563.4c4.541,1.488,20.4-2.418,20.4-2.418s-10.475-12.536-15.016-14.023a8.653,8.653,0,1,0-5.4,16.441Z" transform="translate(-140.349 -338.998)"/><path class="c" d="M187.756,394.931c-2.206,4.238-16.275,12.54-16.275,12.54s-1.28-16.284.927-20.526a8.651,8.651,0,0,1,15.349,7.986Z" transform="translate(-131.18 -243.001)"/><path class="c" d="M235.059,476.515c-3.374,3.386-19.279,7.093-19.279,7.093s3.652-15.922,7.022-19.309a8.651,8.651,0,0,1,12.257,12.212Z" transform="translate(-157.288 -289.45)"/><path class="c" d="M275.434,566.764c-2.751,3.906-17.8,10.25-17.8,10.25s.906-16.309,3.661-20.219a8.651,8.651,0,1,1,14.127,9.972Z" transform="translate(-181.749 -342.724)"/><path class="c" d="M714.068,591.852s-6.6-2.235-9.773,3.577a10.6,10.6,0,0,0,.141,10.209c2.078,3.769,6.382,8.663,14.543,8.227,6.906-.37,9.183-5.638,9.814-10.541a10.828,10.828,0,0,0-14.381-11.593Z" transform="translate(-442.099 -365.053)"/><path class="d" d="M705.845,605.906A10.6,10.6,0,0,1,705.7,595.7c3.174-5.817,9.773-3.578,9.773-3.578l.337-.12a10.733,10.733,0,0,1,7.753.174,10.737,10.737,0,0,0-9.141-.873l-.337.12s-6.6-2.235-9.773,3.577a10.6,10.6,0,0,0,.141,10.209,15.775,15.775,0,0,0,7.479,7.064A16.351,16.351,0,0,1,705.845,605.906Z" transform="translate(-442.11 -364.797)"/><path class="e" d="M721.36,599.64s2.447,1.924,8.385,0" transform="translate(-452.797 -370.044)"/><path class="c" d="M720.1,566s4.192,11.356,3.843,14.327l3.324-.349s-5.593-9.972-4.193-13.978Z" transform="translate(-452.061 -350.382)"/><path class="e" d="M720.1,566s4.192,11.356,3.843,14.327l3.324-.349s-5.593-9.972-4.193-13.978Z" transform="translate(-452.061 -350.382)"/><path class="c" d="M743.054,565.9s-6.6-3.374-9.557-.586-3.407,9.914-3.407,9.914S740.856,576.711,743.054,565.9Z" transform="translate(-457.9 -349.338)"/><path class="d" d="M743.054,565.9s-6.6-3.374-9.557-.586-3.407,9.914-3.407,9.914S740.856,576.711,743.054,565.9Z" transform="translate(-457.9 -349.338)"/><path class="f" d="M730.1,577.608s1.733-8.273,12.96-9.328" transform="translate(-457.906 -351.714)"/><path class="b" d="M250.228,379.479s1.346-21.964-9.32-35.459a33.34,33.34,0,0,1-7.3-19.786,56.091,56.091,0,0,1,.7-10.234" transform="translate(-167.7 -203.089)"/><path class="c" d="M219.083,285.366c.578,2.522,6.818,8.788,6.818,8.788s2.909-8.36,2.314-10.878a4.687,4.687,0,1,0-9.141,2.078Z" transform="translate(-159.145 -182.998)"/><path class="c" d="M206.8,319.911c1.857,1.8,10.5,3.673,10.5,3.673S215.187,315,213.33,313.2a4.684,4.684,0,1,0-6.528,6.719Z" transform="translate(-151.211 -201.845)"/><path class="c" d="M217.738,375.5c2.493.619,10.915-2.132,10.915-2.132s-6.162-6.345-8.672-6.964a4.684,4.684,0,0,0-2.244,9.1Z" transform="translate(-156.35 -233.64)"/><path class="c" d="M239.113,416.827c2.373,1.035,11.119-.258,11.119-.258s-4.986-7.3-7.371-8.31a4.682,4.682,0,1,0-3.74,8.585Z" transform="translate(-169.286 -257.954)"/><path class="c" d="M244.165,325.778c-1.4,2.173-9.415,5.921-9.415,5.921s.145-8.842,1.554-11.015a4.684,4.684,0,0,1,7.861,5.094Z" transform="translate(-168.376 -205.746)"/><path class="c" d="M265.427,372.477c-1.99,1.662-10.757,2.834-10.757,2.834s2.784-8.393,4.778-10.047a4.685,4.685,0,1,1,5.979,7.213Z" transform="translate(-180.019 -232.422)"/><path class="c" d="M282.392,423.195c-1.683,1.965-10.122,4.612-10.122,4.612s1.325-8.726,3.012-10.708a4.685,4.685,0,1,1,7.113,6.1Z" transform="translate(-190.306 -262.394)"/><path class="g" d="M219.083,285.366c.578,2.522,6.818,8.788,6.818,8.788s2.909-8.36,2.314-10.878a4.687,4.687,0,1,0-9.141,2.078Z" transform="translate(-159.145 -182.998)"/><path class="g" d="M206.8,319.911c1.857,1.8,10.5,3.673,10.5,3.673S215.187,315,213.33,313.2a4.684,4.684,0,1,0-6.528,6.719Z" transform="translate(-151.211 -201.845)"/><path class="g" d="M217.738,375.5c2.493.619,10.915-2.132,10.915-2.132s-6.162-6.345-8.672-6.964a4.684,4.684,0,0,0-2.244,9.1Z" transform="translate(-156.35 -233.64)"/><path class="g" d="M239.113,416.827c2.373,1.035,11.119-.258,11.119-.258s-4.986-7.3-7.371-8.31a4.682,4.682,0,1,0-3.74,8.585Z" transform="translate(-169.286 -257.954)"/><path class="g" d="M244.165,325.778c-1.4,2.173-9.415,5.921-9.415,5.921s.145-8.842,1.554-11.015a4.684,4.684,0,0,1,7.861,5.094Z" transform="translate(-168.376 -205.746)"/><path class="g" d="M265.427,372.477c-1.99,1.662-10.757,2.834-10.757,2.834s2.784-8.393,4.778-10.047a4.685,4.685,0,1,1,5.979,7.213Z" transform="translate(-180.019 -232.422)"/><path class="g" d="M282.392,423.195c-1.683,1.965-10.122,4.612-10.122,4.612s1.325-8.726,3.012-10.708a4.685,4.685,0,1,1,7.113,6.1Z" transform="translate(-190.306 -262.394)"/><path class="h" d="M504.5,20.39V163.307H714.3V20.39Z" transform="translate(-294.881 -11.913)"/><rect class="i" width="204.462" height="133.847" transform="translate(212.731 14.959)"/><rect class="j" width="204.462" height="9.847" transform="translate(212.731 8.593)"/><circle class="k" cx="2.389" cy="2.389" r="2.389" transform="translate(218.12 10.978)"/><circle class="l" cx="2.389" cy="2.389" r="2.389" transform="translate(224.689 10.978)"/><circle class="m" cx="2.389" cy="2.389" r="2.389" transform="translate(231.254 10.978)"/><rect class="n" width="76.191" height="3.174" transform="translate(220.568 34.213)"/><rect class="n" width="76.191" height="3.174" transform="translate(220.568 40.562)"/><rect class="n" width="76.191" height="3.174" transform="translate(220.568 46.911)"/><rect class="n" width="49.927" height="3.174" transform="translate(246.827 53.26)"/><rect class="n" width="40.117" height="3.174" transform="translate(220.568 59.613)"/><rect class="n" width="30.88" height="3.174" transform="translate(242.211 65.962)"/><rect class="n" width="89.757" height="51.66" transform="translate(306.86 56.439)"/><rect class="j" width="89.757" height="51.66" transform="translate(317.538 61.341)"/><path class="c" d="M889.448,299.4H839.23v-9.449C851.5,284.219,870.376,281,889.448,299.4Z" transform="translate(-521.692 -186.413)"/><g class="o" transform="translate(344.089 99.056)"><path d="M965.759,298.062V299.4H903.13v-.287S933.948,269.122,965.759,298.062Z" transform="translate(-903.13 -285.467)"/></g><path class="c" d="M967.149,298.062V299.4H904.52v-.287S935.338,269.122,967.149,298.062Z" transform="translate(-559.854 -186.411)"/><circle class="c" cx="4.616" cy="4.616" r="4.616" transform="translate(323.314 65.962)"/><path class="p" d="M952.152,208.317c-.528,0-1.118,0-1.517.033a1.845,1.845,0,0,0-.528.108l-2.717.976c2.194.054,4.483.037,6.727,0l12.606-.1c1.284,0,2.638-.021,3.711-.1.719-.05,1.246-.129,1.907-.187,2.385-.212,5.867-.17,8.975-.162a49.045,49.045,0,0,0,7.953-.382H982.6c-.719,0-1.475,0-2.111-.037-.744-.042-1.2-.125-1.849-.183-1.08-.091-2.568-.1-3.956-.108C967.089,208.176,959.581,208.359,952.152,208.317Z" transform="translate(-584.911 -141.237)"/><path class="p" d="M975.41,221.963h-.328a.414.414,0,0,0-.112.025l-.59.212h1.458l2.73-.021c.278,0,.569,0,.8-.021l.415-.042c.515-.046,1.272-.037,1.945-.033a10.6,10.6,0,0,0,1.724-.083h-1.9c-.137,0-.258-.029-.415-.037-.233,0-.557-.021-.856-.025C978.643,221.93,977.018,221.963,975.41,221.963Z" transform="translate(-600.686 -149.278)"/><path class="p" d="M928.87,241.4h-.328a.415.415,0,0,0-.112.025l-.59.212H929.3l2.73-.021c.279,0,.569,0,.8-.021l.416-.042c.515-.046,1.271-.037,1.945-.033a10.6,10.6,0,0,0,1.724-.083h-1.9c-.137,0-.258-.029-.415-.037-.233,0-.557-.021-.856-.025C932.107,241.375,930.478,241.413,928.87,241.4Z" transform="translate(-573.484 -160.642)"/><path class="c" d="M901.053,269.179H898.9s-.677-23.734,2.169-31.059h.544S899.7,264.978,901.053,269.179Z" transform="translate(-556.528 -158.737)"/><path class="c" d="M890.677,218.421s-1.762,4.882-.947,7.064c0,0,1.221-4.475,2.647-5.152s2.909,5.152,2.909,5.152a11.185,11.185,0,0,0-.677-6.648,11.793,11.793,0,0,1,4.475,4.745s.27-2.036-3.253-6.233a14.031,14.031,0,0,1,5.152,2.713s.677-1.492-3.528-3.935c0,0,.544-1.762,3.8-.947,0,0,0-2.306-5.152-1.9,0,0,0-1.492,3.391-1.222,0,0,0-1.9-3.935-1.222a6.333,6.333,0,0,1,1.354-1.492,2.725,2.725,0,0,0-1.9.544,3.669,3.669,0,0,0-1.9-3.391l-.27,3.391s-2.281-2.688-1.762-2.169a5.947,5.947,0,0,1,.416,2.576,4.224,4.224,0,0,0-5.152.137s3.528.27,4.068,1.492c0,0-2.983-.544-3.661-.137,0,0,2.306.831,2.169,1.355,0,0-4.068,0-4.612,1.492,0,0,4.2.544,4.475.947,0,0-4.882,3.528-5.152,4.475,0,0,5.019-2.983,5.817-2.983s-3.661,4.342-3.391,5.426C886.069,222.5,889.73,218.147,890.677,218.421Z" transform="translate(-547.643 -140.256)"/><path class="c" d="M968.026,277.359h1.662s.519-18.133-1.662-23.729h-.416S969.06,274.143,968.026,277.359Z" transform="translate(-596.729 -167.803)"/><path class="c" d="M959.981,238.591s1.346,3.74.727,5.4c0,0-.931-3.42-2.019-3.939s-2.227,3.939-2.227,3.939a8.636,8.636,0,0,1,.519-5.077,9.008,9.008,0,0,0-3.42,3.627s-.208-1.554,2.493-4.766a10.5,10.5,0,0,0-3.939,2.078s-.519-1.139,2.693-3c0,0-.416-1.346-2.909-.727,0,0,0-1.762,3.939-1.45,0,0,0-1.139-2.589-.931,0,0,0-1.45,3-.931a4.571,4.571,0,0,0-1.035-1.138,2.077,2.077,0,0,1,1.45.416,2.8,2.8,0,0,1,1.45-2.589l.208,2.589s1.741-2.053,1.346-1.662a4.544,4.544,0,0,0-.312,1.969,3.233,3.233,0,0,1,3.939.1s-2.693.208-3.108,1.138c0,0,2.281-.416,2.8-.1,0,0-1.762.623-1.662,1.035,0,0,3.108,0,3.524,1.139,0,0-3.212.415-3.42.727,0,0,3.74,2.692,3.939,3.42,0,0-3.835-2.281-4.454-2.281s2.8,3.324,2.589,4.155C963.505,241.7,960.709,238.383,959.981,238.591Z" transform="translate(-587.547 -153.699)"/><path class="c" d="M1015.988,281.536h1.026s.32-11.219-1.026-14.7h-.258S1016.627,279.546,1015.988,281.536Z" transform="translate(-624.855 -175.524)"/><path class="c" d="M1010.957,257.495s.831,2.31.449,3.324c0,0-.577-2.119-1.246-2.439s-1.379,2.439-1.379,2.439a5.36,5.36,0,0,1,.32-3.145,5.581,5.581,0,0,0-2.119,2.248s-.129-.964,1.542-2.95a6.512,6.512,0,0,0-2.439,1.284s-.32-.706,1.662-1.861c0,0-.258-.831-1.795-.449,0,0,0-1.093,2.439-.9,0,0,0-.706-1.6-.578,0,0,0-.9,1.861-.578a2.819,2.819,0,0,0-.64-.706,1.292,1.292,0,0,1,.9.258,1.737,1.737,0,0,1,.9-1.6l.129,1.6s1.08-1.271.831-1.026a2.815,2.815,0,0,0-.191,1.217,2,2,0,0,1,2.439.062s-1.662.129-1.924.706a4.8,4.8,0,0,1,1.733-.062s-1.093.386-1.026.64c0,0,1.924,0,2.181.706a9.757,9.757,0,0,0-2.119.449s2.31,1.662,2.439,2.119a18.087,18.087,0,0,0-2.759-1.413c-.386,0,1.733,2.053,1.6,2.568C1013.159,259.419,1011.426,257.366,1010.957,257.495Z" transform="translate(-619.139 -166.757)"/><path class="q" d="M917.786,264.955h0l-.216-1.155a.628.628,0,0,0-.2-.453l-1-.49h0a1.139,1.139,0,0,1-.179-.3v-.025a.6.6,0,0,0,.116-.237.39.39,0,0,0,0-.066h0a.37.37,0,0,0,.416-.3V261.9a.37.37,0,0,1-.337.278,1.022,1.022,0,0,0,.453-.831v-.042a.369.369,0,0,0,.17-.249v-.025a.369.369,0,0,1-.179.233,1.015,1.015,0,0,0-.062-.278h.025a.37.37,0,0,0,.37-.37V260.6a.37.37,0,0,1-.37.345h-.046a.606.606,0,0,0,.415-.494v-.025a.369.369,0,0,1-.075.2.372.372,0,0,0-.735-.108l-.066-.037a.37.37,0,0,1,.337-.27H916.6a.37.37,0,0,0-.357.249,1.022,1.022,0,0,0-1.288.37c-.079.058-.179.141-.175.212a.7.7,0,0,0-.087.108,1.418,1.418,0,0,0-.116.769.831.831,0,0,1-.266.706.353.353,0,0,0,.274,0,1.045,1.045,0,0,0,.241-.141.536.536,0,0,0,.17-.162h0a.829.829,0,0,0,.154.079c.021.175.025.374-.05.436h0V262.8a.939.939,0,0,1-.652.187.831.831,0,0,0-.673.415l-.312,1.334h0v.021h0v.021h0a.1.1,0,0,0,.075.075l.1.025a2.034,2.034,0,0,1,0,.64,5.7,5.7,0,0,0-.112.981c.025.166.066,1.022.083,1.429q-.052.206-.083.415l-.465,2.788s-.345,2.231-.328,2.909l-.062.391s-.943,1.184-.665,1.35.7.241,1.109-.391a1.018,1.018,0,0,1,.258-.391.382.382,0,0,0,.129-.324l-.029-.274h.079a9.628,9.628,0,0,0,.416-2.593s.86-3.066,1.517-3.548h0l.062-.029.141,2.967-.141,3.274-.029.2s-.943,1.184-.665,1.35.7.241,1.109-.391a1.019,1.019,0,0,1,.258-.391.382.382,0,0,0,.129-.324l-.042-.415a8.482,8.482,0,0,0,.415-3.058L917,269.48a2.064,2.064,0,0,0,.249-1.151,10.62,10.62,0,0,0,.278-2.343l.058-.922h.174l.021-.025h0v-.021h0Zm-.806,1.874a1.929,1.929,0,0,0-.087-.191h-.025v-.071a.8.8,0,0,0,.033-.1.362.362,0,0,0,.054-.2,1.886,1.886,0,0,1,.042.557Zm-.087-.789-.058-.619v-.05l.079.785Zm-2.738.083a.216.216,0,0,0-.05.166h0a.7.7,0,0,0,.025.187l-.091.386v-.74a1.628,1.628,0,0,0,.154-.249.415.415,0,0,1-.017.249Z" transform="translate(-564.194 -171.64)"/><path class="r" d="M918.19,262.64a1.362,1.362,0,0,0-.112.74.785.785,0,0,1-.258.681.34.34,0,0,0,.262,0,1,1,0,0,0,.233-.137.515.515,0,0,0,.162-.158.616.616,0,0,0,.037-.316,3.312,3.312,0,0,1,.05-.561c0-.116.129-.415,0-.49S918.248,262.548,918.19,262.64Z" transform="translate(-567.627 -172.919)"/><path class="s" d="M913.027,292.411l-.087.569s-.91,1.143-.64,1.3.677.233,1.068-.374a.979.979,0,0,1,.249-.374h0a.369.369,0,0,0,.125-.312l-.087-.881Z" transform="translate(-564.371 -190.429)"/><path class="s" d="M919.617,292.961l-.087.569s-.91,1.143-.64,1.3.677.233,1.068-.374a.981.981,0,0,1,.249-.374h0a.37.37,0,0,0,.125-.312l-.087-.881Z" transform="translate(-568.223 -190.75)"/><path class="t" d="M915.412,276.1a2.152,2.152,0,0,0-.586,1.384l-.449,2.684a23.7,23.7,0,0,0-.307,2.909l.756.258a9.283,9.283,0,0,0,.416-2.493s.91-3.237,1.546-3.465l.133,2.859-.141,3.224.648.129a8.8,8.8,0,0,0,.449-3.133l.337-2.306a3.416,3.416,0,0,0-.149-2.3Z" transform="translate(-565.436 -180.79)"/><g class="o" transform="translate(349.341 95.051)"><path d="M917.706,279.55v-.05c-.636.229-1.546,3.465-1.546,3.465a9.093,9.093,0,0,1-.391,2.468l.083.029a9.279,9.279,0,0,0,.416-2.493S917.075,280.015,917.706,279.55Z" transform="translate(-915.77 -277.975)"/><path d="M922.7,275.83h-.087a3.419,3.419,0,0,1,.145,2.289l-.337,2.306a8.7,8.7,0,0,1-.44,3.116h.083a8.8,8.8,0,0,0,.449-3.133l.337-2.306a3.416,3.416,0,0,0-.15-2.273Z" transform="translate(-919.4 -275.83)"/></g><path class="u" d="M915.9,271.209a.1.1,0,0,0,.075.1,1.5,1.5,0,0,1,.573.274c.32.249-.337-.5-.337-.5l-.22.05Z" transform="translate(-566.505 -178.002)"/><path class="v" d="M915.9,271.209a.1.1,0,0,0,.075.1,1.5,1.5,0,0,1,.573.274c.32.249-.337-.5-.337-.5l-.22.05Z" transform="translate(-566.505 -178.002)"/><path class="u" d="M923.42,272.289a2.008,2.008,0,0,1,.9-.357.083.083,0,0,0,.083-.083h0a.719.719,0,0,0-.985.44Z" transform="translate(-570.9 -178.414)"/><path class="v" d="M924.4,271.819a.719.719,0,0,0-.985.44,1.7,1.7,0,0,1,.943-.357" transform="translate(-570.9 -178.396)"/><circle class="r" cx="0.985" cy="0.985" r="0.985" transform="translate(350.658 88.96)"/><path class="w" d="M919.272,264.464s.141.578,0,.7-.415.337-.208.507.964.457,1.213.32.536-.1.47-.386-.615-.229-.627-1.662Z" transform="translate(-568.311 -173.829)"/><path class="v" d="M916.086,271a3.6,3.6,0,0,1-.058.935,5.48,5.48,0,0,0-.108.943c.029.208.091,1.583.091,1.583s-.108,1.2.478,1.093-.091-1.371-.091-1.371l.029-1.662a1.534,1.534,0,0,0,.3-.735C916.751,271.415,916.086,271,916.086,271Z" transform="translate(-566.517 -177.955)"/><path class="w" d="M916.056,271a3.6,3.6,0,0,1-.058.935,5.48,5.48,0,0,0-.108.943c.029.208.091,1.583.091,1.583s-.108,1.2.478,1.093-.091-1.371-.091-1.371l.029-1.662a1.533,1.533,0,0,0,.3-.735C916.725,271.415,916.056,271,916.056,271Z" transform="translate(-566.499 -177.955)"/><path class="v" d="M923.753,271.19l-.079,1.284a10.242,10.242,0,0,1-.27,2.256s.058,1.247-.528,1.247.1-1.384.1-1.384a5.666,5.666,0,0,0,.154-1.853l-.154-1.542Z" transform="translate(-570.445 -178.067)"/><path class="w" d="M923.773,271.19l-.079,1.284a10.244,10.244,0,0,1-.27,2.256s.058,1.247-.528,1.247.1-1.384.1-1.384a5.667,5.667,0,0,0,.154-1.853L923,271.2Z" transform="translate(-570.456 -178.067)"/><path class="v" d="M917.88,267.489s.474.22.735-.415l.968.474a.6.6,0,0,1,.187.436l.208,1.114a.71.71,0,0,0-.927.416l.058.627h0a.672.672,0,0,1-.029.469.1.1,0,0,0,0,.083.307.307,0,0,1-.278.415,5.865,5.865,0,0,0-.777.058c-.208.058-.831-.12-1.043,0s-.648-.091-.648-.091l.121-.507s-.079-.249,0-.337a2.166,2.166,0,0,0-.05-1.084s-.357-.337-.565-.278l.3-1.284a.781.781,0,0,1,.648-.416.906.906,0,0,0,.627-.179S917.182,267.41,917.88,267.489Z" transform="translate(-566.47 -175.612)"/><path class="v" d="M917.953,267.4c.129.033.478.075.686-.449l.968.474a.6.6,0,0,1,.187.436l.208,1.114a.71.71,0,0,0-.927.416l.058.627.037.125a.353.353,0,0,1-.05.316.112.112,0,0,0,0,.116.307.307,0,0,1-.278.415,5.864,5.864,0,0,0-.777.058c-.208.058-.831-.121-1.043,0s-.648-.091-.648-.091l.121-.507s-.079-.249,0-.337a2.165,2.165,0,0,0-.05-1.084s-.357-.337-.565-.278l.3-1.284a.781.781,0,0,1,.648-.416.906.906,0,0,0,.627-.179s-.233.416.382.519Z" transform="translate(-566.494 -175.542)"/><path class="u" d="M917.93,267.442c.129.033.478.075.685-.449l.968.474a.6.6,0,0,1,.187.436l.208,1.114a.71.71,0,0,0-.927.415l.058.627h0a.672.672,0,0,1-.029.469.1.1,0,0,0,0,.083.307.307,0,0,1-.278.415,5.86,5.86,0,0,0-.777.058c-.208.058-.831-.12-1.043,0s-.648-.091-.648-.091l.121-.507s-.079-.249,0-.337a2.166,2.166,0,0,0-.05-1.084s-.357-.337-.565-.278l.3-1.284a.781.781,0,0,1,.648-.416.906.906,0,0,0,.627-.179s-.233.415.382.519Z" transform="translate(-566.47 -175.565)"/><path class="v" d="M920.581,264.05l-.831.528a2.731,2.731,0,0,1,.05.274.831.831,0,0,0,.3.058.852.852,0,0,0,.548-.249A3.283,3.283,0,0,1,920.581,264.05Z" transform="translate(-568.755 -173.893)"/><circle class="w" cx="0.814" cy="0.814" r="0.814" transform="translate(350.5 89.338)"/><circle class="r" cx="0.357" cy="0.357" r="0.357" transform="translate(352.162 88.811)"/><path class="r" d="M923.077,262.112a.357.357,0,0,1-.357-.332s0,0,0,.025a.357.357,0,1,0,.715,0v-.025A.357.357,0,0,1,923.077,262.112Z" transform="translate(-570.491 -172.566)"/><path class="r" d="M922.673,262.891a.357.357,0,0,1-.291-.391v.025a.359.359,0,1,0,.706.129v-.025A.357.357,0,0,1,922.673,262.891Z" transform="translate(-570.29 -172.987)"/><path class="r" d="M922,264.951a.357.357,0,0,1-.291-.391v.025a.359.359,0,0,0,.706.129v-.025A.357.357,0,0,1,922,264.951Z" transform="translate(-569.899 -174.191)"/><path class="r" d="M923.077,261.662a.357.357,0,0,1-.357-.332s0,0,0,.025a.357.357,0,1,0,.715,0v-.025A.357.357,0,0,1,923.077,261.662Z" transform="translate(-570.491 -172.303)"/><path class="r" d="M922.316,261.163a.357.357,0,0,1,.337-.353h-.025a.357.357,0,1,0,0,.715h.025A.357.357,0,0,1,922.316,261.163Z" transform="translate(-570.228 -171.999)"/><path class="v" d="M923.228,269.79a1.29,1.29,0,0,1,0,.536s-.05.47.029.548" transform="translate(-570.779 -177.248)"/><path class="v" d="M917.408,270a1.29,1.29,0,0,1,0,.536s-.05.47.029.548" transform="translate(-567.378 -177.371)"/><path class="v" d="M917.38,274.64a.358.358,0,0,0,.237,0,.5.5,0,0,1,.287,0" transform="translate(-567.37 -180.071)"/><path class="v" d="M917.67,272.819a2.078,2.078,0,0,0,.831-.129s1.014.249,1.3.071" transform="translate(-567.54 -178.943)"/><rect class="w" width="0.627" height="0.386" rx="0.193" transform="translate(349.395 98.151)"/><path class="x" d="M915.9,283.53h.337l.291.046h-.1Z" transform="translate(-566.505 -185.279)"/><path class="x" d="M921.33,279.65h.337l.291.029h-.1Z" transform="translate(-569.679 -183.011)"/><path class="x" d="M921.33,279.82h.337l.291.029h-.1Z" transform="translate(-569.679 -183.111)"/><path class="x" d="M921.33,280h.337l.291.029h-.1Z" transform="translate(-569.679 -183.216)"/><path class="x" d="M921.33,280.15h.337l.291.029h-.1Z" transform="translate(-569.679 -183.304)"/><path class="x" d="M915.9,284.19h.337l.291.033h-.1Z" transform="translate(-566.505 -185.665)"/><path class="x" d="M915.9,284.11h.337l.291.033h-.1Z" transform="translate(-566.505 -185.618)"/><path class="x" d="M915.9,284h.337l.291.033h-.1Z" transform="translate(-566.505 -185.554)"/><path class="x" d="M915.9,283.94h.337l.291.033h-.1Z" transform="translate(-566.505 -185.519)"/><path class="x" d="M915.9,283.42h.337l.291.046h-.1Z" transform="translate(-566.505 -185.215)"/><path class="x" d="M915.9,283.28h.337l.291.046h-.1Z" transform="translate(-566.505 -185.133)"/><path class="v" d="M920.834,262.249a1.973,1.973,0,0,0,.112.9,1.072,1.072,0,0,1-.05.856.282.282,0,0,0,.253-.062.984.984,0,0,0,.183-.216.577.577,0,0,0,.112-.224.893.893,0,0,0-.058-.378,4.906,4.906,0,0,1-.12-.673c0-.137,0-.536-.154-.573S920.863,262.133,920.834,262.249Z" transform="translate(-569.383 -172.62)"/><path class="r" d="M920.884,262.241a1.973,1.973,0,0,0,.112.9,1.072,1.072,0,0,1-.046.864.283.283,0,0,0,.253-.062.983.983,0,0,0,.183-.216.578.578,0,0,0,.112-.224.893.893,0,0,0-.058-.378,4.886,4.886,0,0,1-.12-.673c0-.137,0-.536-.154-.573S920.926,262.125,920.884,262.241Z" transform="translate(-569.412 -172.62)"/><path class="v" d="M919.377,262.223c.066.071.083.179.141.262a.511.511,0,0,0,.416.162.229.229,0,0,1,.116.025c.062.042.066.133.108.2a.228.228,0,0,0,.341,0,.557.557,0,0,0,.1-.341,2.239,2.239,0,0,0,0-.415.661.661,0,0,0-.183-.44.764.764,0,0,0-.32-.137.947.947,0,0,0-.494-.037.89.89,0,0,0-.224.112l-.291.2c-.108.075-.308.224-.112.307C919.115,262.14,919.273,262.111,919.377,262.223Z" transform="translate(-568.254 -172.391)"/><path class="r" d="M919.468,262.18c.066.071.083.179.141.262a.511.511,0,0,0,.416.162.228.228,0,0,1,.116.025c.062.042.066.133.108.2a.229.229,0,0,0,.341,0,.557.557,0,0,0,.129-.357,2.234,2.234,0,0,0,0-.415.661.661,0,0,0-.183-.44.765.765,0,0,0-.32-.137.948.948,0,0,0-.494-.037.89.89,0,0,0-.224.112l-.291.2c-.108.075-.307.224-.112.307A.7.7,0,0,1,919.468,262.18Z" transform="translate(-568.324 -172.356)"/><path class="x" d="M921.38,279.65h.337l.291.029h-.1Z" transform="translate(-569.708 -183.011)"/><path class="x" d="M921.38,279.82h.337l.291.029h-.1Z" transform="translate(-569.708 -183.111)"/><path class="x" d="M921.38,280h.337l.291.029h-.1Z" transform="translate(-569.708 -183.216)"/><path class="x" d="M921.38,280.15h.337l.291.029h-.1Z" transform="translate(-569.708 -183.304)"/><path class="x" d="M921,289.38h.337l.291.029h-.1Z" transform="translate(-569.486 -188.698)"/><path class="x" d="M921,289.54h.337l.291.029h-.1Z" transform="translate(-569.486 -188.792)"/><path class="x" d="M921,289.71h.337l.291.029h-.1Z" transform="translate(-569.486 -188.891)"/><path class="x" d="M921,289.88h.337l.291.029h-.1Z" transform="translate(-569.486 -188.991)"/><path class="y" d="M420.889,715.569H387.84V696.95h33.049Zm-31.653-1.4h30.249V698.346H389.236Z" transform="translate(-257.857 -426.921)"/><path class="z" d="M271.465,409.286a7.736,7.736,0,0,0,6.532.956,10.136,10.136,0,0,0,1.7-.752c21.191.449,40.815.241,41.575-2.04,1.246-3.781-6.648-22.4-10.633-31.4a10.088,10.088,0,0,0,2.909-3.037c5.535,6.328,15.831,14.493,21.951,14.9,0,0,8.933,21.22,18.984,17.867s11.169-21.22,6.141-23.451l-33.5-21.22v-35.21a13.189,13.189,0,0,0,1.4-6.523c0-.415.021-.831,0-1.246L327.4,308.073s-.058-.332-.212-.935c-2.493-9.685-8.048-16.2-15.881-17.173a5.722,5.722,0,0,0,.681-2.256c.162-1.878-.619-3.794-.179-5.626.515-2.136,2.493-3.515,4.118-4.986,3.469-3.174,5.655-7.479,7.766-11.68,2.011-4,4.051-8.107,4.571-12.552s-.831-9.382-4.467-12c-2.825-2.04-6.8-2.576-8.834-5.4a22.677,22.677,0,0,1-1.915-4.267c-1.807-4.118-5.7-7.039-9.935-8.564-14.842-5.343-33.049.789-42.519,13.113-3.091,4.022-5.323,8.626-7.529,13.192l-7.978,16.491c-1.375,2.838-2.7,6.382-.868,8.946.9,1.247,2.435,2.019,3.058,3.428.831,1.87-.208,4.317,1.014,5.963a7.718,7.718,0,0,0,2.842,1.8,11.127,11.127,0,0,1,3.436,3.046L237.057,302.19a11.8,11.8,0,0,0-4.512,8.148l-1.733,17.268a21.007,21.007,0,0,0-.781,6.029,10.274,10.274,0,0,0,1.06,5.4l.382-.091c.416,12.112,1.138,29.538,1.853,32.758.415,1.911,3.037,5.281,6.569,8.755l-1.247,3.532h.415l-.415,1.109h.831c-3.523,12.731-13.109,22.325-13.109,22.325S248.537,408.629,271.465,409.286Zm-20.833-58.827V336.884c2.044.316,3.553,1.022,4.035,2.31Zm5.917-59.076.066.1h-.025Z" transform="translate(-163.478 -148.552)"/><path class="w" d="M420.31,459.8s1.06,37.653,2.123,42.427,16.446,19.109,24.394,19.641c0,0,8.485,20.152,18.033,16.969s10.608-20.152,5.817-22.275l-31.8-20.152v-40.3Z" transform="translate(-276.835 -286.151)"/><path class="aa" d="M312.555,576.09s13.791,29.7,12.2,34.487-90.165,0-90.165,0,16.442-16.442,13.259-34.487Z" transform="translate(-168.283 -356.279)"/><path class="w" d="M337.064,359.739s-2.123,20.684,1.591,25.458-14.85,7.421-16.425,7.421-18.561-5.817-21.743-7.425-5.817-13.259-5.817-13.259,15.91,3.183,20.684-15.374Z" transform="translate(-203.399 -227.965)"/><path class="ab" d="M330.2,233.928c4.018,1.446,7.72,4.222,9.436,8.131a21.733,21.733,0,0,0,1.82,4.055c1.928,2.692,5.7,3.2,8.389,5.14,3.445,2.493,4.72,7.176,4.242,11.4s-2.418,8.123-4.325,11.921c-2.007,3.993-4.08,8.077-7.375,11.094-1.537,1.409-3.424,2.717-3.914,4.745-.415,1.741.324,3.557.166,5.343-.382,4.408-5.651,6.461-10.051,6.951-1.911.212-4.1.224-5.447-1.151A9.476,9.476,0,0,1,321.666,299a12.228,12.228,0,0,0-21.81-.224c-1.03,1.986-1.633,4.392-3.511,5.605-2.875,1.857-6.719-.324-8.834-3.008s-3.656-6.058-6.677-7.666c-.952-.507-2.078-.831-2.7-1.712-1.159-1.562-.174-3.885-.96-5.663-.594-1.338-2.053-2.077-2.909-3.258-1.745-2.435-.482-5.817.831-8.5l7.579-15.664a69.1,69.1,0,0,1,7.151-12.532C298.809,234.676,316.1,228.851,330.2,233.928Z" transform="translate(-190.976 -155.21)"/><path class="v" d="M293.053,407.552s-20.684,0-25.986-19.092l-17.41,13.491a11.219,11.219,0,0,0-4.284,7.741l-1.662,16.425s-1.857,6.1.266,9.81c0,0,22.022-5.568,22.541.794L251.154,479.68s23.867.532,30.228-3.71c0,0,25.986,5.3,32.351-.532s12.727-5.3,7.425-18.561c0,0,10.608-10.608,5.817-25.458s-.266.266-.266.266,10.342-5.04,9.81-14.584l-1.06-9.557s-.058-.316-.2-.885c-3.233-12.581-11.921-19.529-24.133-15.1a11.2,11.2,0,0,1-7.217-.187S307.9,408.629,293.053,407.552Z" transform="translate(-173.175 -246.61)"/><path class="ac" d="M293.053,405s-20.684,0-25.986-19.092L249.658,399.4a11.219,11.219,0,0,0-4.284,7.737l-1.662,16.425s-1.857,6.1.266,9.81c0,0,22.022-5.568,22.541.794l-15.374,42.959s23.867.532,30.228-3.71c0,0,25.986,5.3,32.351-.532s12.727-5.3,7.425-18.561c0,0,10.608-10.608,5.817-25.458s-.266.266-.266.266,10.342-5.04,9.81-14.584l-1.06-9.557s-.058-.316-.2-.885c-3.233-12.581-11.921-19.529-24.133-15.1a11.2,11.2,0,0,1-7.217-.187S307.9,406.062,293.053,405Z" transform="translate(-173.175 -245.12)"/><path class="w" d="M245.45,470.03s1.06,37.653,2.123,42.427,16.442,19.093,24.394,19.624c0,0,8.485,20.152,18.033,16.969s10.608-20.152,5.817-22.275L264,506.624v-40.3Z" transform="translate(-174.63 -292.119)"/><path class="v" d="M268.015,467.655s-12.187,8.277-22.8,7.587c0,0-1.06-14.214,2.123-15.008S264.3,460.234,268.015,467.655Z" transform="translate(-174.392 -288.418)"/><path class="ac" d="M268.015,466.379s-12.187,8.277-22.8,7.583c0,0-1.06-14.214,2.123-15.008S264.3,458.954,268.015,466.379Z" transform="translate(-174.392 -287.67)"/><path class="v" d="M335.583,359.1l21.743,3.183s-.49,4.787-.586,10.284a24.407,24.407,0,0,1-25.591-4.155A24.047,24.047,0,0,0,335.583,359.1Z" transform="translate(-224.722 -229.45)"/><circle class="w" cx="24.394" cy="24.394" r="24.394" transform="translate(99.195 95.18)"/><path class="v" d="M324.029,284.309a7.572,7.572,0,0,0,3.262.465q6.474-.042,12.935-.478c3.266-.22,6.748-.6,9.266-2.693,3.391-2.813,3.927-8.086,2.177-12.129s-5.318-7.022-9.087-9.3a27.128,27.128,0,0,0-6.864-3.112c-6.993-1.9-14.726.416-20.281,5.09s-9.1,11.376-10.969,18.378c-.648,2.422-1.479,5.306-3.877,6.041,1.6,2.655,5.489,3.075,8.289,1.745,4.122-1.961,6.233-9.465,9.935-10.645C322.932,276.373,320.53,282.706,324.029,284.309Z" transform="translate(-206.859 -169.422)"/><path class="ab" d="M324.046,283.059a7.573,7.573,0,0,0,3.262.465q6.474-.042,12.935-.478c3.266-.22,6.748-.6,9.266-2.693,3.391-2.813,3.927-8.086,2.177-12.129s-5.318-7.022-9.087-9.3a27.127,27.127,0,0,0-6.852-3.091c-6.993-1.9-14.725.415-20.281,5.09S306.371,272.3,304.5,279.3c-.648,2.422-1.479,5.306-3.877,6.041,1.6,2.655,5.489,3.075,8.289,1.745,4.122-1.961,6.233-9.465,9.935-10.645C322.949,275.127,320.548,281.455,324.046,283.059Z" transform="translate(-206.877 -168.703)"/><path class="v" d="M397.484,545.443a93.948,93.948,0,0,0-24.394-3.183" transform="translate(-249.235 -336.505)"/><path class="v" d="M300.33,481s7.957,5.817,5.817,9.016" transform="translate(-206.707 -300.7)"/><g class="ad" transform="translate(53.132 240.432)"><path class="h" d="M388.277,578.64H127.88v22.766h15.158v71.637H373.659V601.406h14.617Z" transform="translate(-127.88 -578.64)"/></g><rect class="ae" width="225.922" height="81.144" transform="translate(70.633 253.691)"/><rect class="v" width="225.922" height="12.727" transform="translate(70.633 257.933)"/><rect class="ae" width="255.095" height="21.743" transform="translate(55.783 244.675)"/><rect class="af" width="48.793" height="6.893" rx="3.447" transform="translate(103.981 239.323)"/><g class="ad" transform="translate(133.677 162.455)"><rect class="h" width="121.265" height="83.849" rx="28.22"/></g><rect class="ag" width="114.875" height="82.299" rx="26.84" transform="translate(135.842 164.004)"/><rect class="af" width="114.875" height="82.299" rx="26.84" transform="translate(137.433 164.004)"/><circle class="ae" cx="3.71" cy="3.71" r="3.71" transform="translate(196.526 200.876)"/></g></svg>