<svg xmlns="http://www.w3.org/2000/svg" width="50.998" height="51" viewBox="0 0 50.998 51"><defs><style>.a{fill:#0467d7;}</style></defs><g transform="translate(-2 -2)"><path class="a" d="M19.959,6.865A13.094,13.094,0,1,0,33.053,19.959,13.094,13.094,0,0,0,19.959,6.865Zm0,21.595a8.5,8.5,0,1,1,8.5-8.5,8.5,8.5,0,0,1-8.5,8.5Z" transform="translate(7.541 7.541)"/><path class="a" d="M52.846,16.987a18.7,18.7,0,0,0-1.184-6.19A12.541,12.541,0,0,0,48.72,6.28a12.479,12.479,0,0,0-4.515-2.941,18.673,18.673,0,0,0-6.19-1.184C35.3,2.031,34.427,2,27.5,2s-7.795.029-10.515.154A18.7,18.7,0,0,0,10.8,3.339,12.508,12.508,0,0,0,6.28,6.28,12.458,12.458,0,0,0,3.339,10.8a18.7,18.7,0,0,0-1.184,6.19C2.029,19.706,2,20.575,2,27.5s.029,7.794.155,10.513A18.7,18.7,0,0,0,3.339,44.2,12.464,12.464,0,0,0,6.28,48.72,12.538,12.538,0,0,0,10.8,51.661a18.713,18.713,0,0,0,6.189,1.184c2.72.124,3.588.155,10.513.155s7.794-.029,10.513-.155a18.7,18.7,0,0,0,6.19-1.184A13.037,13.037,0,0,0,51.662,44.2a18.656,18.656,0,0,0,1.184-6.19C52.97,35.292,53,34.425,53,27.5S52.97,19.706,52.846,16.987ZM48.258,37.805a14.149,14.149,0,0,1-.877,4.736,8.444,8.444,0,0,1-4.841,4.838,14.082,14.082,0,0,1-4.736.877c-2.688.124-3.5.148-10.305.148s-7.615-.025-10.3-.148a14.092,14.092,0,0,1-4.736-.877,7.925,7.925,0,0,1-2.933-1.907,7.867,7.867,0,0,1-1.907-2.931,14.079,14.079,0,0,1-.877-4.736C6.621,35.117,6.6,34.31,6.6,27.5s.027-7.615.148-10.305a14.186,14.186,0,0,1,.877-4.735A7.924,7.924,0,0,1,9.529,9.527a7.858,7.858,0,0,1,2.933-1.907A14.083,14.083,0,0,1,17.2,6.742c2.688-.124,3.5-.148,10.3-.148s7.615.027,10.305.148a14.187,14.187,0,0,1,4.736.877,8.439,8.439,0,0,1,4.841,4.841,14.082,14.082,0,0,1,.877,4.735c.124,2.69.148,3.5.148,10.305s-.024,7.615-.148,10.305Z"/><path class="a" d="M19.2,5.462h0a3.059,3.059,0,1,0,3.06,3.06,3.059,3.059,0,0,0-3.06-3.06Z" transform="translate(21.915 5.366)"/></g></svg>