<svg xmlns="http://www.w3.org/2000/svg" width="260.928" height="45.976" viewBox="0 0 260.928 45.976"><defs><style>.a{isolation:isolate;}.b{fill:#ff9a00;}.c{fill:#0467d7;}.d{fill:#f7991c;}</style></defs><g class="a" transform="translate(-1315.57 -290.78)"><path class="b" d="M545.318,644.057h16.354v13.932h-32.1v-42.4h15.748Z" transform="translate(786 -322.139)"/><path class="b" d="M833.649,612.59c11.509,0,16.958,6.661,16.958,6.661l-7.268,11.509s-3.635-3.332-7.874-3.332a7.268,7.268,0,1,0,0,14.535c4.242,0,7.874-3.332,7.874-3.332l7.268,11.509s-5.451,6.664-16.958,6.664c-12.719,0-22.409-9.69-22.409-22.109S820.93,612.59,833.649,612.59Z" transform="translate(589.73 -320.049)"/><path class="b" d="M986.74,636.789l12.719,21.2h-18.17l-8.48-16.961v16.958H957.06v-42.4h15.748v16.958l7.268-16.958h18.17Z" transform="translate(488.122 -322.139)"/><g transform="translate(1494.733 293.451)"><path class="c" d="M1165.914,657.989H1148.35l-1.213-6.058h-7.874l-1.21,6.058H1120.49l12.416-42.4H1153.5C1153.559,615.833,1165.914,657.989,1165.914,657.989Zm-20.593-15.748-2.119-10.9-2.119,10.9Z" transform="translate(-1120.49 -615.59)"/><path class="c" d="M1300.038,644.057h16.354v13.932h-32.1v-42.4h15.748Z" transform="translate(-1234.627 -615.59)"/></g><path class="d" d="M667.327,606.78c-13.313,0-24.107,10.227-24.107,22.84s10.794,22.84,24.107,22.84,24.11-10.227,24.11-22.84S680.643,606.78,667.327,606.78Zm-6.179,35.477,3.681-13.313a6.206,6.206,0,0,1,2.426-11.961,6.291,6.291,0,0,1,6.1,6.388,6.2,6.2,0,0,1-3.19,5.242l3.544,13.644Z" transform="translate(706.808 -316)"/></g></svg>