<svg xmlns="http://www.w3.org/2000/svg" width="54.874" height="34.514" viewBox="0 0 54.874 34.514"><defs><style>.a{fill:#ff9a00;}</style></defs><path class="a" d="M51.914,29.762a4.792,4.792,0,0,0-4.639,4.948,4.653,4.653,0,0,0,1.811,3.535C43.608,45.58,38.041,46.154,31.59,34a4.85,4.85,0,0,0,1.9-6.981,4.326,4.326,0,0,0-4.065-2.032h-.177a4.459,4.459,0,0,0-4.065,2.032A4.85,4.85,0,0,0,27.084,34c-6.451,12.15-12.018,11.576-17.5,4.241A4.727,4.727,0,0,0,11.4,34.711,4.821,4.821,0,0,0,6.76,29.762a4.772,4.772,0,1,0-.088,9.543,2.519,2.519,0,0,0,.574-.044L9.057,57.023A2.738,2.738,0,0,0,11.8,59.5H46.877a2.738,2.738,0,0,0,2.739-2.474l1.811-17.761a2.334,2.334,0,0,0,.574.044,4.772,4.772,0,1,0-.088-9.543Z" transform="translate(-1.9 -24.983)"/></svg>