<svg xmlns="http://www.w3.org/2000/svg" width="44.457" height="44.457" viewBox="0 0 44.457 44.457"><path d="M44.531,20.49a.926.926,0,0,0-.926.926v8.95H41.962V27.353a2.782,2.782,0,0,0-2.779-2.779H32.272a2.782,2.782,0,0,0-2.779,2.779v3.013H11.013a5.853,5.853,0,0,0-5.847,5.847v2.979H1.926a.926.926,0,0,0,0,1.852H6.779v3.486a.926.926,0,0,0,1.852,0V41.045H37.825v3.486a.926.926,0,0,0,1.852,0V41.045h4.853a.926.926,0,0,0,.926-.926v-18.7A.926.926,0,0,0,44.531,20.49ZM31.345,27.353a.927.927,0,0,1,.926-.926h6.912a.927.927,0,0,1,.926.926v3.013H31.345ZM43.6,39.192H7.018V36.213a4,4,0,0,1,3.994-3.994H43.6v6.974ZM23.713,17a.926.926,0,0,0,0,1.852h1.652l-2.376,2.981a.926.926,0,0,0,.724,1.5h3.574a.926.926,0,1,0,0-1.852H25.635L28.011,18.5a.926.926,0,0,0-.724-1.5Zm7.406-6.093H34.71l-4.315,5.415a.926.926,0,0,0,.724,1.5h5.513a.926.926,0,1,0,0-1.852H33.041l4.315-5.415a.926.926,0,0,0-.724-1.5H31.119a.926.926,0,1,0,0,1.852ZM20.472,2.852h4.22l-4.945,6.2a.926.926,0,0,0,.724,1.5h6.142a.926.926,0,0,0,0-1.852h-4.22l4.945-6.2A.926.926,0,0,0,26.614,1H20.472a.926.926,0,1,0,0,1.852Z" transform="translate(-1 -1)"/></svg>