<svg width="18" height="19" viewBox="0 0 18 19" fill="none" xmlns="http://www.w3.org/2000/svg">
<g clip-path="url(#clip0)">
<path d="M1.63526 12.7448V2.21042L0.930587 2.92025C0.879937 2.97128 0.819808 3.01175 0.753631 3.03936C0.687454 3.06697 0.616527 3.08118 0.544897 3.08118C0.473268 3.08118 0.402341 3.06697 0.336164 3.03936C0.269987 3.01175 0.209858 2.97128 0.159208 2.92025C0.108559 2.86923 0.0683816 2.80866 0.0409703 2.742C0.013559 2.67534 -0.000549317 2.60389 -0.000549316 2.53174C-0.000549315 2.45959 0.013559 2.38814 0.0409703 2.32148C0.0683816 2.25482 0.108559 2.19425 0.159208 2.14323L1.79575 0.495198C1.84644 0.444054 1.90664 0.403479 1.9729 0.375796C2.03917 0.348112 2.11021 0.333862 2.18195 0.333862C2.25368 0.333862 2.32472 0.348112 2.39099 0.375796C2.45725 0.403479 2.51745 0.444054 2.56814 0.495198L4.20468 2.14373C4.25533 2.19475 4.29551 2.25532 4.32292 2.32198C4.35033 2.38864 4.36444 2.46009 4.36444 2.53224C4.36444 2.6044 4.35033 2.67585 4.32292 2.74251C4.29551 2.80917 4.25533 2.86974 4.20468 2.92076C4.15403 2.97178 4.0939 3.01225 4.02773 3.03986C3.96155 3.06748 3.89062 3.08169 3.81899 3.08169C3.74736 3.08169 3.67644 3.06748 3.61026 3.03986C3.54408 3.01225 3.48395 2.97178 3.4333 2.92076L2.72512 2.21042V12.7448L3.4308 12.0339C3.48141 11.9827 3.54154 11.9421 3.60775 11.9143C3.67396 11.8865 3.74495 11.8722 3.81667 11.872C3.8884 11.8719 3.95944 11.886 4.02576 11.9135C4.09208 11.941 4.15236 11.9814 4.20318 12.0324C4.25399 12.0834 4.29434 12.144 4.32191 12.2107C4.34949 12.2774 4.36376 12.3489 4.36389 12.4211C4.36403 12.4934 4.35005 12.5649 4.32273 12.6317C4.29541 12.6985 4.2553 12.7593 4.20468 12.8104L2.56814 14.459C2.51745 14.5101 2.45725 14.5507 2.39099 14.5784C2.32472 14.6061 2.25368 14.6203 2.18195 14.6203C2.11021 14.6203 2.03917 14.6061 1.9729 14.5784C1.90664 14.5507 1.84644 14.5101 1.79575 14.459L0.159208 12.8104C0.108559 12.7594 0.0683816 12.6989 0.0409703 12.6322C0.013559 12.5655 -0.000549316 12.4941 -0.000549316 12.4219C-0.000549316 12.3498 0.013559 12.2783 0.0409703 12.2117C0.0683816 12.145 0.108559 12.0844 0.159208 12.0334C0.209858 11.9824 0.269987 11.9419 0.336164 11.9143C0.402341 11.8867 0.473268 11.8725 0.544897 11.8725C0.616527 11.8725 0.687454 11.8867 0.753631 11.9143C0.819808 11.9419 0.879937 11.9824 0.930587 12.0334L1.63526 12.7448ZM17.8387 15.8802L16.2022 14.2316C16.1515 14.1806 16.0914 14.1401 16.0252 14.1125C15.959 14.0849 15.8881 14.0707 15.8165 14.0707C15.7449 14.0707 15.6739 14.0849 15.6077 14.1125C15.5416 14.1401 15.4814 14.1806 15.4308 14.2316C15.3801 14.2826 15.34 14.3432 15.3126 14.4099C15.2851 14.4765 15.271 14.548 15.271 14.6201C15.271 14.6923 15.2851 14.7637 15.3126 14.8304C15.34 14.8971 15.3801 14.9576 15.4308 15.0087L16.1355 15.7195H5.67923L6.38641 15.0082C6.43706 14.9571 6.47724 14.8966 6.50465 14.8299C6.53206 14.7632 6.54617 14.6918 6.54617 14.6196C6.54617 14.5475 6.53206 14.476 6.50465 14.4094C6.47724 14.3427 6.43706 14.2821 6.38641 14.2311C6.33576 14.1801 6.27563 14.1396 6.20945 14.112C6.14328 14.0844 6.07235 14.0702 6.00072 14.0702C5.92909 14.0702 5.85816 14.0844 5.79199 14.112C5.72581 14.1396 5.66568 14.1801 5.61503 14.2311L3.97899 15.8797C3.92821 15.9307 3.88793 15.9913 3.86045 16.0581C3.83297 16.1249 3.81882 16.1964 3.81882 16.2687C3.81882 16.3409 3.83297 16.4125 3.86045 16.4792C3.88793 16.546 3.92821 16.6066 3.97899 16.6577L5.61553 18.3062C5.66618 18.3572 5.7263 18.3977 5.79247 18.4252C5.85863 18.4528 5.92954 18.467 6.00115 18.467C6.07275 18.467 6.14365 18.4527 6.2098 18.4251C6.27595 18.3975 6.33604 18.357 6.38666 18.306C6.43728 18.255 6.47742 18.1944 6.5048 18.1277C6.53218 18.0611 6.54626 17.9897 6.54624 17.9175C6.54622 17.8454 6.53209 17.774 6.50467 17.7074C6.47724 17.6407 6.43706 17.5802 6.38641 17.5292L5.67923 16.8194H16.137L15.4323 17.5292C15.33 17.6322 15.2725 17.772 15.2725 17.9177C15.2725 18.0634 15.33 18.2032 15.4323 18.3062C15.5346 18.4093 15.6733 18.4672 15.818 18.4672C15.9627 18.4672 16.1014 18.4093 16.2037 18.3062L17.8402 16.6577C17.891 16.6066 17.9313 16.546 17.9588 16.4792C17.9862 16.4125 18.0004 16.3409 18.0004 16.2687C18.0004 16.1964 17.9862 16.1249 17.9588 16.0581C17.9313 15.9913 17.891 15.9307 17.8402 15.8797L17.8387 15.8802ZM17.4535 3.6316C17.3088 3.6316 17.17 3.68952 17.0677 3.7926C16.9653 3.89569 16.9078 4.0355 16.9078 4.18128V5.28014C16.9056 5.35369 16.9181 5.42694 16.9445 5.49555C16.9709 5.56416 17.0108 5.62673 17.0616 5.67955C17.1125 5.73236 17.1734 5.77435 17.2406 5.80303C17.3079 5.8317 17.3802 5.84648 17.4533 5.84648C17.5263 5.84648 17.5986 5.8317 17.6659 5.80303C17.7332 5.77435 17.7941 5.73236 17.8449 5.67955C17.8958 5.62673 17.9356 5.56416 17.962 5.49555C17.9885 5.42694 18.0009 5.35369 17.9987 5.28014V4.18078C17.9987 4.03508 17.9413 3.89535 17.8391 3.79228C17.7368 3.6892 17.5982 3.63123 17.4535 3.6311V3.6316ZM17.4535 6.92817C17.3088 6.92817 17.17 6.98608 17.0677 7.08916C16.9653 7.19225 16.9078 7.33206 16.9078 7.47784V8.5767C16.9056 8.65025 16.9181 8.72351 16.9445 8.79211C16.9709 8.86072 17.0108 8.92329 17.0616 8.97611C17.1125 9.02892 17.1734 9.07092 17.2406 9.09959C17.3079 9.12827 17.3802 9.14304 17.4533 9.14304C17.5263 9.14304 17.5986 9.12827 17.6659 9.09959C17.7332 9.07092 17.7941 9.02892 17.8449 8.97611C17.8958 8.92329 17.9356 8.86072 17.962 8.79211C17.9885 8.72351 18.0009 8.65025 17.9987 8.5767V7.47734C17.9986 7.33173 17.9411 7.19212 17.8389 7.08916C17.7367 6.9862 17.5981 6.9283 17.4535 6.92817ZM6.5444 5.82931C6.68886 5.82891 6.82727 5.77082 6.92928 5.66778C7.03129 5.56474 7.08857 5.42515 7.08857 5.27963V4.18078C7.08427 4.03795 7.02492 3.90241 6.9231 3.80291C6.82129 3.70341 6.685 3.64776 6.54314 3.64776C6.40128 3.64776 6.265 3.70341 6.16318 3.80291C6.06136 3.90241 6.00201 4.03795 5.99771 4.18078V5.27963C5.99771 5.3519 6.01186 5.42346 6.03934 5.49022C6.06683 5.55698 6.10711 5.61762 6.15789 5.66867C6.20867 5.71973 6.26894 5.7602 6.33526 5.78776C6.40158 5.81532 6.47265 5.82945 6.5444 5.82931ZM6.5444 9.12587C6.68886 9.12547 6.82727 9.06738 6.92928 8.96434C7.03129 8.8613 7.08857 8.72172 7.08857 8.57619V7.47734C7.08427 7.33451 7.02492 7.19897 6.9231 7.09947C6.82129 6.99997 6.685 6.94432 6.54314 6.94432C6.40128 6.94432 6.265 6.99997 6.16318 7.09947C6.06136 7.19897 6.00201 7.33451 5.99771 7.47734V8.57619C5.99771 8.64846 6.01186 8.72002 6.03934 8.78678C6.06683 8.85354 6.10711 8.91418 6.15789 8.96523C6.20867 9.01629 6.26894 9.05676 6.33526 9.08432C6.40158 9.11189 6.47265 9.12601 6.5444 9.12587ZM13.0901 1.43339H14.1809C14.254 1.43562 14.3267 1.42306 14.3948 1.39645C14.4629 1.36985 14.525 1.32973 14.5774 1.27849C14.6299 1.22725 14.6716 1.16593 14.7 1.09816C14.7285 1.03039 14.7432 0.957552 14.7432 0.883964C14.7432 0.810377 14.7285 0.737538 14.7 0.669768C14.6716 0.601997 14.6299 0.540674 14.5774 0.489435C14.525 0.438196 14.4629 0.398083 14.3948 0.371475C14.3267 0.344868 14.254 0.332307 14.1809 0.334537H13.0901C13.0171 0.332307 12.9443 0.344868 12.8762 0.371475C12.8081 0.398083 12.746 0.438196 12.6936 0.489435C12.6411 0.540674 12.5995 0.601997 12.571 0.669768C12.5425 0.737538 12.5279 0.810377 12.5279 0.883964C12.5279 0.957552 12.5425 1.03039 12.571 1.09816C12.5995 1.16593 12.6411 1.22725 12.6936 1.27849C12.746 1.32973 12.8081 1.36985 12.8762 1.39645C12.9443 1.42306 13.0171 1.43562 13.0901 1.43339ZM9.81749 1.43339H10.9083C11.0501 1.42906 11.1847 1.36927 11.2835 1.26671C11.3822 1.16415 11.4375 1.02686 11.4375 0.883964C11.4375 0.741066 11.3822 0.603784 11.2835 0.501219C11.1847 0.398654 11.0501 0.338869 10.9083 0.334537H9.81699C9.74397 0.332307 9.67125 0.344868 9.60314 0.371475C9.53503 0.398083 9.47291 0.438196 9.42048 0.489435C9.36805 0.540674 9.32636 0.601997 9.2979 0.669768C9.26943 0.737538 9.25476 0.810377 9.25476 0.883964C9.25476 0.957552 9.26943 1.03039 9.2979 1.09816C9.32636 1.16593 9.36805 1.22725 9.42048 1.27849C9.47291 1.32973 9.53503 1.36985 9.60314 1.39645C9.67125 1.42306 9.74397 1.43562 9.81699 1.43339H9.81749ZM13.0901 12.4224H14.1809C14.254 12.4247 14.3267 12.4121 14.3948 12.3855C14.4629 12.3589 14.525 12.3188 14.5774 12.2675C14.6299 12.2163 14.6716 12.155 14.7 12.0872C14.7285 12.0194 14.7432 11.9466 14.7432 11.873C14.7432 11.7994 14.7285 11.7266 14.7 11.6588C14.6716 11.591 14.6299 11.5297 14.5774 11.4785C14.525 11.4272 14.4629 11.3871 14.3948 11.3605C14.3267 11.3339 14.254 11.3214 14.1809 11.3236H13.0901C13.0171 11.3214 12.9443 11.3339 12.8762 11.3605C12.8081 11.3871 12.746 11.4272 12.6936 11.4785C12.6411 11.5297 12.5995 11.591 12.571 11.6588C12.5425 11.7266 12.5279 11.7994 12.5279 11.873C12.5279 11.9466 12.5425 12.0194 12.571 12.0872C12.5995 12.155 12.6411 12.2163 12.6936 12.2675C12.746 12.3188 12.8081 12.3589 12.8762 12.3855C12.9443 12.4121 13.0171 12.4247 13.0901 12.4224ZM9.81749 12.4224H10.9083C11.0501 12.4181 11.1847 12.3583 11.2835 12.2558C11.3822 12.1532 11.4375 12.0159 11.4375 11.873C11.4375 11.7301 11.3822 11.5928 11.2835 11.4903C11.1847 11.3877 11.0501 11.3279 10.9083 11.3236H9.81699C9.74397 11.3214 9.67125 11.3339 9.60314 11.3605C9.53503 11.3871 9.47291 11.4272 9.42048 11.4785C9.36805 11.5297 9.32636 11.591 9.2979 11.6588C9.26943 11.7266 9.25476 11.7994 9.25476 11.873C9.25476 11.9466 9.26943 12.0194 9.2979 12.0872C9.32636 12.155 9.36805 12.2163 9.42048 12.2675C9.47291 12.3188 9.53503 12.3589 9.60314 12.3855C9.67125 12.4121 9.74397 12.4247 9.81699 12.4224H9.81749ZM16.3627 0.334537C16.2896 0.332307 16.2169 0.344868 16.1488 0.371475C16.0807 0.398083 16.0186 0.438196 15.9662 0.489435C15.9137 0.540674 15.872 0.601997 15.8436 0.669768C15.8151 0.737538 15.8004 0.810377 15.8004 0.883964C15.8004 0.957552 15.8151 1.03039 15.8436 1.09816C15.872 1.16593 15.9137 1.22725 15.9662 1.27849C16.0186 1.32973 16.0807 1.36985 16.1488 1.39645C16.2169 1.42306 16.2896 1.43562 16.3627 1.43339C16.4344 1.43339 16.5054 1.44763 16.5716 1.47528C16.6378 1.50294 16.698 1.54347 16.7487 1.59457C16.7994 1.64566 16.8396 1.70632 16.867 1.77307C16.8944 1.83982 16.9084 1.91135 16.9083 1.98358C16.9061 2.05713 16.9186 2.13038 16.945 2.19899C16.9714 2.2676 17.0113 2.33017 17.0621 2.38298C17.113 2.4358 17.1739 2.47779 17.2411 2.50647C17.3084 2.53514 17.3807 2.54992 17.4538 2.54992C17.5268 2.54992 17.5991 2.53514 17.6664 2.50647C17.7337 2.47779 17.7946 2.4358 17.8454 2.38298C17.8963 2.33017 17.9361 2.2676 17.9625 2.19899C17.989 2.13038 18.0014 2.05713 17.9992 1.98358C17.9993 1.76705 17.957 1.55262 17.8748 1.35255C17.7926 1.15249 17.672 0.970694 17.5201 0.81756C17.3681 0.664426 17.1877 0.542951 16.9891 0.460073C16.7905 0.377195 16.5776 0.334537 16.3627 0.334537ZM7.63526 12.4224C7.70828 12.4247 7.781 12.4121 7.84911 12.3855C7.91722 12.3589 7.97933 12.3188 8.03176 12.2675C8.0842 12.2163 8.12588 12.155 8.15435 12.0872C8.18281 12.0194 8.19748 11.9466 8.19748 11.873C8.19748 11.7994 8.18281 11.7266 8.15435 11.6588C8.12588 11.591 8.0842 11.5297 8.03176 11.4785C7.97933 11.4272 7.91722 11.3871 7.84911 11.3605C7.781 11.3339 7.70828 11.3214 7.63526 11.3236C7.56356 11.3237 7.49253 11.3096 7.42624 11.2821C7.35995 11.2545 7.2997 11.2141 7.24893 11.1631C7.19816 11.1121 7.15787 11.0515 7.13035 10.9848C7.10283 10.9181 7.08864 10.8466 7.08857 10.7744C7.08427 10.6316 7.02492 10.496 6.9231 10.3965C6.82129 10.297 6.685 10.2414 6.54314 10.2414C6.40128 10.2414 6.265 10.297 6.16318 10.3965C6.06136 10.496 6.00201 10.6316 5.99771 10.7744C5.99778 10.9909 6.04019 11.2053 6.12252 11.4054C6.20486 11.6054 6.32551 11.7871 6.47758 11.9401C6.62964 12.0932 6.81015 12.2145 7.00879 12.2973C7.20743 12.38 7.4203 12.4226 7.63526 12.4224ZM17.4535 10.2247C17.3089 10.2249 17.1702 10.2828 17.068 10.3859C16.9658 10.489 16.9083 10.6287 16.9083 10.7744C16.9083 10.9202 16.8509 11.06 16.7485 11.1631C16.6462 11.2662 16.5074 11.3241 16.3627 11.3241C16.2896 11.3219 16.2169 11.3344 16.1488 11.361C16.0807 11.3876 16.0186 11.4277 15.9662 11.479C15.9137 11.5302 15.872 11.5915 15.8436 11.6593C15.8151 11.7271 15.8004 11.7999 15.8004 11.8735C15.8004 11.9471 15.8151 12.0199 15.8436 12.0877C15.872 12.1555 15.9137 12.2168 15.9662 12.268C16.0186 12.3193 16.0807 12.3594 16.1488 12.386C16.2169 12.4126 16.2896 12.4252 16.3627 12.4229C16.5776 12.4229 16.7904 12.3803 16.9889 12.2975C17.1875 12.2146 17.3679 12.0932 17.5199 11.9401C17.6718 11.787 17.7924 11.6053 17.8746 11.4053C17.9569 11.2053 17.9992 10.9909 17.9992 10.7744C17.9992 10.6286 17.9417 10.4888 17.8394 10.3857C17.7371 10.2826 17.5983 10.2247 17.4535 10.2247ZM6.5444 2.53224C6.68868 2.53184 6.82694 2.47389 6.92893 2.37107C7.03091 2.26825 7.08831 2.12892 7.08857 1.98358C7.08851 1.91126 7.10261 1.83965 7.13006 1.77283C7.15752 1.70602 7.19779 1.64532 7.24858 1.59421C7.29936 1.5431 7.35966 1.50259 7.42601 1.47499C7.49236 1.44739 7.56347 1.43326 7.63526 1.43339C7.70828 1.43562 7.781 1.42306 7.84911 1.39645C7.91722 1.36985 7.97933 1.32973 8.03176 1.27849C8.0842 1.22725 8.12588 1.16593 8.15435 1.09816C8.18281 1.03039 8.19748 0.957552 8.19748 0.883964C8.19748 0.810377 8.18281 0.737538 8.15435 0.669768C8.12588 0.601997 8.0842 0.540674 8.03176 0.489435C7.97933 0.438196 7.91722 0.398083 7.84911 0.371475C7.781 0.344868 7.70828 0.332307 7.63526 0.334537C7.42034 0.334604 7.20755 0.37731 7.00902 0.460218C6.81049 0.543126 6.63011 0.664612 6.47819 0.817739C6.32627 0.970866 6.20578 1.15264 6.1236 1.35267C6.04141 1.55271 5.99915 1.76709 5.99921 1.98358C5.99948 2.1291 6.05702 2.26857 6.15922 2.37143C6.26142 2.47428 6.39993 2.53211 6.5444 2.53224Z" fill="white"/>
</g>
<defs>
<clipPath id="clip0">
<rect y="0.333252" width="18" height="18.1334" fill="white"/>
</clipPath>
</defs>
</svg>
