<svg width="18" height="19" viewBox="0 0 18 19" fill="none" xmlns="http://www.w3.org/2000/svg">
<g clip-path="url(#clip0)">
<path d="M17.6245 8.28222C17.5251 8.28222 17.4297 8.32203 17.3593 8.3929C17.289 8.46376 17.2495 8.55987 17.2495 8.66009V12.3105H16.5843V11.0814C16.5843 10.7806 16.4657 10.492 16.2545 10.2793C16.0433 10.0665 15.7569 9.94703 15.4583 9.94703H12.661C12.3624 9.94703 12.076 10.0665 11.8648 10.2793C11.6536 10.492 11.535 10.7806 11.535 11.0814V12.3105H4.05339C3.42521 12.3105 2.82275 12.5619 2.37856 13.0093C1.93436 13.4568 1.68482 14.0638 1.68482 14.6966V15.9119H0.374723C0.275243 15.9119 0.179838 15.9518 0.109495 16.0226C0.039152 16.0935 -0.000366211 16.1896 -0.000366211 16.2898C-0.000366211 16.39 0.039152 16.4861 0.109495 16.557C0.179838 16.6279 0.275243 16.6677 0.374723 16.6677H2.33947V18.0896C2.33947 18.1898 2.37899 18.2859 2.44934 18.3568C2.51968 18.4276 2.61508 18.4674 2.71456 18.4674C2.81404 18.4674 2.90945 18.4276 2.97979 18.3568C3.05013 18.2859 3.08965 18.1898 3.08965 18.0896V16.6661H14.91V18.088C14.91 18.1882 14.9495 18.2843 15.0199 18.3552C15.0902 18.4261 15.1856 18.4659 15.2851 18.4659C15.3846 18.4659 15.48 18.4261 15.5503 18.3552C15.6207 18.2843 15.6602 18.1882 15.6602 18.088V16.6661H17.6253C17.7248 16.6661 17.8202 16.6263 17.8905 16.5554C17.9609 16.4846 18.0004 16.3885 18.0004 16.2883V8.66048C18.0005 8.61075 17.9909 8.56148 17.972 8.51551C17.9531 8.46955 17.9255 8.42779 17.8905 8.39264C17.8556 8.35749 17.8141 8.32964 17.7685 8.31069C17.7228 8.29174 17.6739 8.28207 17.6245 8.28222ZM12.2859 11.0814C12.286 10.9812 12.3256 10.8852 12.3959 10.8143C12.4662 10.7435 12.5616 10.7037 12.661 10.7035H15.4594C15.5589 10.7037 15.6542 10.7435 15.7245 10.8143C15.7949 10.8852 15.8344 10.9812 15.8345 11.0814V12.3105H12.2859V11.0814ZM17.2495 15.9104H2.43655V14.695C2.43706 14.2631 2.60761 13.849 2.91079 13.5436C3.21397 13.2381 3.62502 13.0663 4.05378 13.0658H17.2495V15.9104ZM9.19591 6.85798C9.09643 6.85798 9.00103 6.89779 8.93069 6.96865C8.86034 7.03952 8.82083 7.13563 8.82083 7.23585C8.82083 7.33606 8.86034 7.43218 8.93069 7.50304C9.00103 7.5739 9.09643 7.61372 9.19591 7.61372H9.86455L8.90237 8.82986C8.85834 8.88542 8.83079 8.95238 8.82288 9.02303C8.81497 9.09368 8.82702 9.16514 8.85765 9.22919C8.88829 9.29323 8.93625 9.34727 8.99603 9.38506C9.0558 9.42285 9.12495 9.44287 9.19553 9.44282H10.6427C10.7422 9.44282 10.8376 9.403 10.9079 9.33214C10.9783 9.26128 11.0178 9.16516 11.0178 9.06495C11.0178 8.96473 10.9783 8.86862 10.9079 8.79775C10.8376 8.72689 10.7422 8.68708 10.6427 8.68708H9.97405L10.9362 7.47094C10.9803 7.41537 11.0078 7.34841 11.0157 7.27777C11.0236 7.20712 11.0116 7.13566 10.9809 7.07161C10.9503 7.00756 10.9023 6.95353 10.8426 6.91574C10.7828 6.87794 10.7136 6.85792 10.6431 6.85798H9.19591ZM12.1943 4.37289H13.6481L11.9007 6.58142C11.8567 6.63699 11.8292 6.70395 11.8213 6.7746C11.8133 6.84524 11.8254 6.91671 11.856 6.98075C11.8867 7.0448 11.9346 7.09883 11.9944 7.13663C12.0542 7.17442 12.1233 7.19444 12.1939 7.19438H14.4258C14.5253 7.19438 14.6207 7.15457 14.691 7.08371C14.7614 7.01285 14.8009 6.91673 14.8009 6.81652C14.8009 6.7163 14.7614 6.62019 14.691 6.54932C14.6207 6.47846 14.5253 6.43865 14.4258 6.43865H12.9724L14.7197 4.23011C14.7634 4.17451 14.7907 4.10763 14.7984 4.03713C14.8061 3.96664 14.794 3.89538 14.7633 3.83153C14.7327 3.76767 14.6848 3.71381 14.6252 3.6761C14.5656 3.63839 14.4966 3.61837 14.4262 3.61833H12.1943C12.0948 3.61833 11.9994 3.65814 11.9291 3.729C11.8587 3.79987 11.8192 3.89598 11.8192 3.9962C11.8192 4.09641 11.8587 4.19253 11.9291 4.26339C11.9994 4.33425 12.0948 4.37406 12.1943 4.37406V4.37289ZM7.88427 1.08708H9.59275L7.58994 3.61833C7.54592 3.67389 7.51836 3.74085 7.51045 3.8115C7.50254 3.88215 7.5146 3.95361 7.54523 4.01766C7.57586 4.08171 7.62383 4.13574 7.6836 4.17353C7.74338 4.21133 7.81253 4.23135 7.8831 4.23129H10.3682C10.4676 4.23129 10.563 4.19148 10.6334 4.12061C10.7037 4.04975 10.7433 3.95364 10.7433 3.85342C10.7433 3.7532 10.7037 3.65709 10.6334 3.58623C10.563 3.51536 10.4676 3.47555 10.3682 3.47555H8.65968L10.6617 0.944697C10.7054 0.889227 10.7328 0.822487 10.7406 0.752104C10.7485 0.681721 10.7365 0.610535 10.7061 0.546681C10.6756 0.482827 10.628 0.428882 10.5686 0.391011C10.5092 0.35314 10.4404 0.332871 10.3701 0.33252H7.88194C7.78246 0.33252 7.68705 0.372331 7.61671 0.443195C7.54637 0.514059 7.50685 0.610171 7.50685 0.710388C7.50685 0.810604 7.54637 0.906717 7.61671 0.977581C7.68705 1.04844 7.78246 1.08826 7.88194 1.08826L7.88427 1.08708Z" fill="white"/>
</g>
<defs>
<clipPath id="clip0">
<rect x="-0.000366211" y="0.33252" width="18.0008" height="18.1349" fill="white"/>
</clipPath>
</defs>
</svg>
