<svg width="18" height="19" viewBox="0 0 18 19" fill="none" xmlns="http://www.w3.org/2000/svg">
<g clip-path="url(#clip0)">
<path d="M18.0002 10.161C18.0002 10.0645 17.9702 9.97198 17.9169 9.90374C17.8636 9.8355 17.7912 9.79717 17.7158 9.79717H10.5858C10.8234 9.44182 11.0193 9.04417 11.1674 8.61669C11.2396 8.41809 11.8608 6.65051 11.4118 5.97209C10.3966 4.43887 10.4552 0.807073 10.4646 0.770832C10.4653 0.721492 10.4582 0.672476 10.4437 0.626765C10.4291 0.581053 10.4075 0.539603 10.38 0.504934C10.3526 0.470266 10.3199 0.443104 10.284 0.425101C10.2481 0.407098 10.2097 0.39863 10.1711 0.400211H8.3066C8.26861 0.400194 8.231 0.409916 8.196 0.428803C8.161 0.44769 8.1293 0.475359 8.1028 0.510176C8.07629 0.544994 8.0555 0.586254 8.04166 0.63152C8.02782 0.676787 8.02121 0.725142 8.02222 0.773732C8.02222 0.809972 8.08302 4.43935 7.07503 5.97595C6.62598 6.65245 7.24762 8.41954 7.31938 8.62055C7.46751 9.04803 7.66343 9.44568 7.90099 9.80103H0.284572C0.20967 9.80103 0.13779 9.83883 0.0845435 9.90623C0.0312973 9.97364 0.000984622 10.0652 0.000188844 10.161V18.0325C-0.00120367 18.0814 0.00511634 18.1301 0.0187713 18.1758C0.0324263 18.2214 0.053136 18.2631 0.0796633 18.2983C0.106191 18.3335 0.137991 18.3615 0.173165 18.3806C0.20834 18.3997 0.246165 18.4096 0.284383 18.4096C0.322601 18.4096 0.360427 18.3997 0.395602 18.3806C0.430776 18.3615 0.462576 18.3335 0.489104 18.2983C0.515631 18.2631 0.536341 18.2214 0.549996 18.1758C0.563651 18.1301 0.569971 18.0814 0.568578 18.0325V14.4616H17.4318V18.0373C17.4345 18.1315 17.4656 18.2206 17.5186 18.286C17.5716 18.3514 17.6424 18.3879 17.716 18.3879C17.7896 18.3879 17.8604 18.3514 17.9134 18.286C17.9664 18.2206 17.9975 18.1315 18.0002 18.0373V10.161ZM7.50104 6.44467C8.45805 5.00471 8.58117 2.14894 8.5925 1.12599H9.88865C9.89998 2.14894 10.0231 5.00471 10.9801 6.44128C11.0674 6.60847 10.9688 7.56619 10.5537 8.57465C10.2467 9.3043 9.96645 9.58117 9.85277 9.58117H8.62686C8.51356 9.58117 8.23258 9.31203 7.9278 8.57513C7.51086 7.56861 7.41229 6.60847 7.49953 6.44612L7.50104 6.44467ZM0.568578 13.7334V10.5258H17.4318V13.7329L0.568578 13.7334Z" fill="white"/>
</g>
<defs>
<clipPath id="clip0">
<rect y="0.333252" width="18.0002" height="18.143" fill="white"/>
</clipPath>
</defs>
</svg>
