<svg width="18" height="19" viewBox="0 0 18 19" fill="none" xmlns="http://www.w3.org/2000/svg">
<g clip-path="url(#clip0)">
<path d="M12.2193 11.4746C10.358 11.4746 9.53001 9.16234 9.42763 7.60818C9.37026 6.74591 9.23713 4.72604 10.1323 3.44004C10.4029 3.07835 10.7291 2.79716 11.0891 2.61537C11.4491 2.43359 11.8344 2.35543 12.2193 2.38616C12.3391 2.38616 12.4539 2.44883 12.5387 2.56038C12.6234 2.67194 12.671 2.82324 12.671 2.98101C12.671 3.13877 12.6234 3.29007 12.5387 3.40163C12.4539 3.51318 12.3391 3.57585 12.2193 3.57585C11.9599 3.54698 11.6989 3.59168 11.4537 3.70695C11.2086 3.82221 10.9851 4.00536 10.7983 4.24404C10.1717 5.14434 10.2808 6.79875 10.3277 7.50348C10.379 8.27686 10.8182 10.2829 12.2193 10.2829C12.3391 10.2829 12.4539 10.3456 12.5387 10.4571C12.6234 10.5687 12.671 10.72 12.671 10.8777C12.671 11.0355 12.6234 11.1868 12.5387 11.2984C12.4539 11.4099 12.3391 11.4726 12.2193 11.4726V11.4746Z" fill="white"/>
<path d="M12.2193 11.4745C12.0995 11.4745 11.9846 11.4119 11.8999 11.3003C11.8152 11.1888 11.7676 11.0375 11.7676 10.8797C11.7676 10.7219 11.8152 10.5706 11.8999 10.4591C11.9846 10.3475 12.0995 10.2848 12.2193 10.2848C13.6203 10.2848 14.0595 8.27831 14.1109 7.50543C14.1574 6.79922 14.2665 5.14431 13.6395 4.24599C13.4528 4.00745 13.2294 3.82441 12.9844 3.70923C12.7394 3.59405 12.4785 3.5494 12.2193 3.57829C12.16 3.57829 12.1012 3.56291 12.0464 3.53301C11.9916 3.50312 11.9418 3.4593 11.8999 3.40407C11.8579 3.34883 11.8247 3.28326 11.802 3.21108C11.7793 3.13891 11.7676 3.06156 11.7676 2.98345C11.7676 2.90533 11.7793 2.82798 11.802 2.75581C11.8247 2.68364 11.8579 2.61806 11.8999 2.56282C11.9418 2.50759 11.9916 2.46377 12.0464 2.43388C12.1012 2.40398 12.16 2.3886 12.2193 2.3886C12.604 2.35788 12.9893 2.43599 13.3492 2.61769C13.7091 2.79939 14.0353 3.08045 14.3059 3.44199C15.201 4.72601 15.0679 6.74786 15.0109 7.61062C14.9085 9.16231 14.0801 11.4745 12.2193 11.4745ZM6.89106 18.4665C6.78065 18.4668 6.67403 18.4136 6.59147 18.3171C6.50891 18.2206 6.45617 18.0874 6.44329 17.9431C6.28091 16.1652 6.45116 14.894 6.96343 14.0569C7.19946 13.7024 7.48877 13.4163 7.81307 13.2166C8.13738 13.0169 8.48961 12.9081 8.84751 12.8968C10.3648 12.7082 10.801 12.1615 10.7147 10.556C10.7105 10.4781 10.718 10.4 10.7368 10.326C10.7555 10.252 10.7852 10.1836 10.824 10.1246C10.8628 10.0657 10.9101 10.0174 10.9631 9.98254C11.0161 9.94767 11.0738 9.92688 11.1329 9.92137C11.192 9.91585 11.2513 9.92572 11.3075 9.95041C11.3637 9.9751 11.4157 10.0141 11.4604 10.0653C11.5052 10.1164 11.5418 10.1786 11.5683 10.2484C11.5948 10.3182 11.6106 10.3942 11.6148 10.472C11.7689 13.3393 10.3446 13.9058 8.93077 14.0816C8.69347 14.0809 8.45862 14.1448 8.2409 14.2691C8.02319 14.3934 7.82729 14.5756 7.66546 14.8041C7.31857 15.3701 7.20907 16.3785 7.33883 17.8013C7.34642 17.885 7.34043 17.9698 7.32127 18.0502C7.3021 18.1306 7.2702 18.2047 7.22765 18.2676C7.18511 18.3306 7.13291 18.3809 7.07449 18.4153C7.01608 18.4496 6.95279 18.4673 6.88881 18.467L6.89106 18.4665Z" fill="white"/>
<path d="M17.513 18.2651C17.4991 18.2651 17.4852 18.2651 17.4713 18.2626C17.4121 18.2561 17.3543 18.2342 17.3015 18.1981C17.2487 18.162 17.2019 18.1125 17.1637 18.0525C17.1255 17.9924 17.0967 17.923 17.0791 17.8482C17.0614 17.7733 17.0551 17.6947 17.0607 17.6167C17.2512 14.8575 16.6066 14.2185 15.5048 14.0817C14.0913 13.9063 12.6666 13.3409 12.8204 10.4721C12.8246 10.3942 12.8404 10.3183 12.8669 10.2485C12.8933 10.1787 12.93 10.1165 12.9747 10.0653C13.0195 10.0142 13.0715 9.97516 13.1277 9.95047C13.1839 9.92578 13.2432 9.91591 13.3023 9.92142C13.3614 9.92694 13.4191 9.94773 13.4721 9.9826C13.5251 10.0175 13.5723 10.0658 13.6112 10.1247C13.65 10.1836 13.6796 10.252 13.6984 10.326C13.7171 10.4001 13.7246 10.4782 13.7204 10.556C13.6342 12.1611 14.0707 12.7082 15.588 12.8969C17.9915 13.1932 18.0927 15.7948 17.9592 17.7243C17.9493 17.8725 17.8976 18.0105 17.8143 18.111C17.731 18.2116 17.6222 18.2674 17.5092 18.2676L17.513 18.2651ZM4.9732 8.16182C3.36063 8.16182 2.6451 6.16813 2.55659 4.82781C2.50784 4.09097 2.39384 2.36545 3.1675 1.25427C3.40136 0.940686 3.68353 0.696713 3.995 0.538777C4.30647 0.380841 4.64002 0.312606 4.9732 0.338666C5.093 0.338666 5.20789 0.401337 5.2926 0.512893C5.37731 0.624448 5.4249 0.77575 5.4249 0.933514C5.4249 1.09128 5.37731 1.24258 5.2926 1.35414C5.20789 1.46569 5.093 1.52836 4.9732 1.52836C4.76553 1.50464 4.55641 1.53964 4.35985 1.63103C4.16329 1.72243 3.98384 1.86809 3.83352 2.05827C3.32875 2.78374 3.41838 4.14382 3.45851 4.72508C3.49976 5.3503 3.85265 6.97212 4.97507 6.97212C5.09487 6.97212 5.20976 7.0348 5.29447 7.14635C5.37919 7.25791 5.42678 7.40921 5.42678 7.56697C5.42678 7.72474 5.37919 7.87604 5.29447 7.98759C5.20976 8.09915 5.09487 8.16182 4.97507 8.16182H4.9732Z" fill="white"/>
<path d="M4.97356 8.1619C4.85376 8.1619 4.73886 8.09923 4.65415 7.98767C4.56944 7.87611 4.52185 7.72481 4.52185 7.56705C4.52185 7.40929 4.56944 7.25798 4.65415 7.14643C4.73886 7.03487 4.85376 6.9722 4.97356 6.9722C6.0956 6.9722 6.44849 5.34989 6.48975 4.72516C6.52462 4.19427 6.61838 2.78481 6.11473 2.05835C5.96441 1.86817 5.78496 1.7225 5.5884 1.63111C5.39185 1.53972 5.18273 1.50471 4.97506 1.52844C4.85526 1.52844 4.74036 1.46577 4.65565 1.35421C4.57094 1.24266 4.52335 1.09136 4.52335 0.933591C4.52335 0.775828 4.57094 0.624526 4.65565 0.51297C4.74036 0.401415 4.85526 0.338743 4.97506 0.338743C5.30807 0.313096 5.6414 0.381675 5.95261 0.539864C6.26382 0.698054 6.54569 0.942185 6.77926 1.25583C7.55291 2.3675 7.43853 4.09204 7.38941 4.82887C7.30128 6.16821 6.585 8.1619 4.97356 8.1619Z" fill="white"/>
<path d="M0.49815 14.0342C0.387625 14.0346 0.280861 13.9814 0.198212 13.8847C0.115562 13.7881 0.0628081 13.6548 0.050006 13.5102C-0.0883748 11.9897 0.0597563 10.8987 0.503025 10.1737C0.707274 9.8663 0.957752 9.61801 1.23861 9.4446C1.51948 9.27118 1.82461 9.17641 2.13472 9.16628C3.38502 9.01072 3.70978 8.6102 3.63778 7.30198C3.63359 7.22416 3.64109 7.14601 3.65984 7.072C3.67859 6.99799 3.70822 6.92957 3.74705 6.87064C3.78588 6.81171 3.83314 6.76343 3.88613 6.72855C3.93913 6.69368 3.99683 6.67289 4.05592 6.66738C4.11502 6.66187 4.17436 6.67174 4.23056 6.69643C4.28676 6.72111 4.33872 6.76014 4.38347 6.81127C4.42822 6.8624 4.46488 6.92464 4.49136 6.99443C4.51785 7.06423 4.53363 7.1402 4.53782 7.21803C4.67207 9.70804 3.44052 10.1989 2.21835 10.3505C2.02885 10.3494 1.8412 10.3995 1.66703 10.4978C1.49285 10.5961 1.33586 10.7405 1.2058 10.9219C0.927542 11.3768 0.840164 12.1995 0.946668 13.368C0.954573 13.4517 0.948808 13.5367 0.929759 13.6173C0.910711 13.6979 0.878818 13.7721 0.836215 13.8352C0.793611 13.8982 0.741279 13.9485 0.682719 13.9827C0.624159 14.017 0.560721 14.0344 0.49665 14.0337L0.49815 14.0342ZM9.41902 13.8653C9.40514 13.8653 9.39127 13.8653 9.37739 13.8628C9.31821 13.8561 9.26062 13.834 9.20796 13.7978C9.15529 13.7615 9.1086 13.712 9.07056 13.6519C9.03252 13.5918 9.0039 13.5223 8.98634 13.4476C8.96878 13.3729 8.96263 13.2943 8.96825 13.2164C9.14001 10.7338 8.47886 10.4444 7.72657 10.352C6.5044 10.2004 5.2736 9.71002 5.4071 7.21951C5.41551 7.06233 5.47098 6.91599 5.56132 6.81268C5.65166 6.70937 5.76946 6.65755 5.88881 6.66861C6.00816 6.67968 6.11929 6.75273 6.19774 6.8717C6.27619 6.99066 6.31555 7.1458 6.30714 7.30297C6.23701 8.61119 6.5599 9.01171 7.8102 9.16727C9.89341 9.42556 9.98192 11.6642 9.86716 13.325C9.85665 13.4722 9.80495 13.609 9.72213 13.7087C9.6393 13.8085 9.53126 13.8641 9.41902 13.8648V13.8653Z" fill="white"/>
</g>
<defs>
<clipPath id="clip0">
<rect y="0.333252" width="18" height="18.1334" fill="white"/>
</clipPath>
</defs>
</svg>
