<svg xmlns="http://www.w3.org/2000/svg" width="72.505" height="45.603" viewBox="0 0 72.505 45.603"><defs><style>.a{fill:#ff9a00;}</style></defs><path class="a" d="M67.984,31.3a6.331,6.331,0,0,0-6.13,6.538,6.148,6.148,0,0,0,2.393,4.67C57.009,52.2,49.653,52.956,41.13,36.9a6.409,6.409,0,0,0,2.51-9.224,5.717,5.717,0,0,0-5.371-2.685h-.234a5.891,5.891,0,0,0-5.371,2.685,6.409,6.409,0,0,0,2.51,9.224C26.652,52.956,19.3,52.2,12.058,42.506a6.246,6.246,0,0,0,2.393-4.67A6.37,6.37,0,0,0,8.322,31.3,6.305,6.305,0,1,0,8.2,43.907a3.329,3.329,0,0,0,.759-.058l2.393,23.468a3.618,3.618,0,0,0,3.619,3.269H61.329a3.618,3.618,0,0,0,3.619-3.269l2.393-23.468a3.084,3.084,0,0,0,.759.058,6.305,6.305,0,1,0-.117-12.61Z" transform="translate(-1.9 -24.983)"/></svg>